<svg width="390" height="123" viewBox="0 0 390 123" fill="none" xmlns="http://www.w3.org/2000/svg">
<path d="M393.935 0.141449C395.936 0.48645 401.065 2.30344 401.272 2.71745C401.594 3.31544 400.996 3.24644 398.811 2.46445C396.304 1.54445 394.05 1.19945 390.669 1.22245C382.504 1.24545 374.132 4.74145 368.244 10.6064C366.795 12.0324 364.909 14.4014 364.909 14.7464C364.909 15.1834 366.979 15.7814 368.52 15.7814C369.601 15.7814 369.854 15.6894 370.659 14.9534C371.901 13.8264 372.338 14.0564 371.257 15.2754C370.245 16.3794 370.291 16.7934 371.395 17.2764C372.66 17.7824 374.201 19.0014 373.925 19.2775C373.764 19.4384 373.511 19.3924 373.166 19.1624C372.108 18.4725 369.693 17.5984 369.279 17.7365C368.842 17.8745 366.519 20.8184 366.519 21.2094C366.519 21.3244 367.577 21.9684 368.865 22.6354L371.234 23.8314L372.453 23.0034C373.12 22.5434 373.994 21.7614 374.385 21.2554C374.891 20.6115 375.167 20.4274 375.328 20.5884C375.512 20.7724 375.466 20.9334 375.144 21.1634C374.891 21.3244 374.454 21.6694 374.178 21.8994C373.396 22.5434 369.969 26.8904 369.969 27.2355C369.969 27.3964 370.291 27.7184 370.682 27.9254C371.671 28.4774 374.592 30.5704 374.5 30.6625C374.454 30.7085 373.35 30.2715 372.062 29.6964C369.095 28.3855 368.612 28.3624 367.922 29.6045L367.393 30.5245L367.922 31.1225C368.566 31.7895 372.89 33.9515 373.626 33.9515C373.902 33.9515 374.615 33.6295 375.167 33.2384C376.639 32.2265 379.238 31.0765 381.492 30.4324C385.126 29.3745 388.622 29.1674 391.934 29.7885L392.854 29.9495L391.934 30.1105C391.428 30.1795 389.979 30.3175 388.714 30.4095C376.547 31.1455 369.371 37.1255 367.577 47.9585C367.255 49.8904 367.163 50.7185 366.841 54.5825C366.749 55.6404 366.565 56.6525 366.404 56.8825C366.128 57.2275 366.082 57.1814 365.829 56.3764C365.599 55.6175 365.668 54.5365 366.151 50.0515C366.496 47.0844 366.818 44.3245 366.864 43.9105C367.048 42.9215 366.312 42.2315 365.047 42.2315C364.265 42.2315 364.012 42.3695 363.138 43.2895C362.103 44.4165 361.988 44.3475 362.425 42.8755C362.793 41.6335 362.471 41.4035 359.964 41.0585C358.814 40.9205 357.756 40.7135 357.572 40.6215C357.043 40.3455 359.205 40.1155 361.068 40.2995C362.149 40.3914 362.931 40.3685 363.23 40.1845C363.506 40.0465 364.104 39.2415 364.564 38.3904C365.323 37.0335 365.369 36.8265 365.047 36.5735C364.84 36.4355 362.425 35.8605 359.665 35.3085C355.433 34.4805 354.789 34.2965 355.479 34.1355C356.491 33.9054 360.309 34.2965 362.793 34.8945C365.668 35.5615 366.335 35.4925 367.439 34.5035C368.589 33.4454 368.865 33.6295 368.014 34.8715C367.393 35.7455 367.393 35.8145 367.761 36.2285C368.842 37.4015 370.682 37.4015 371.671 36.2285C371.993 35.8375 372.269 35.4005 372.269 35.2395C372.269 34.3655 369.923 33.1695 365.783 31.9965C361.436 30.7315 359.297 30.4324 354.789 30.4095C350.005 30.4095 347.337 30.8465 342.415 32.5024C334.94 34.9865 328.799 38.5975 324.084 43.2664C321.025 46.3255 319.645 48.1885 317.874 51.7765C316.356 54.8585 313.642 62.5635 313.55 64.0815L313.504 64.8865L317.069 64.9095C320.105 64.9325 320.956 65.0245 322.888 65.5305C325.211 66.1515 330.271 68.5665 330.041 68.9345C329.834 69.2795 329.374 69.1645 327.534 68.3365C322.129 65.8755 316.494 65.4615 310.123 67.0945C301.613 69.2565 296.185 75.1445 294.667 83.8615C294.483 84.9425 294.276 86.6675 294.184 87.7025C294 90.0715 294.23 90.3935 296.392 90.6235C297.197 90.7155 298.439 90.9455 299.129 91.1295C300.831 91.6125 308.49 95.3385 308.674 95.7755C308.904 96.3735 308.559 96.3965 307.57 95.8445C302.165 92.8315 298.094 91.7045 292.482 91.6585C282.868 91.6125 274.22 95.7755 269.827 102.56C267.964 105.435 265.319 110.403 265.319 111.024C265.319 111.829 265.48 111.99 267.619 113.301C270.793 115.256 272.242 116.36 274.105 118.315C275.876 120.155 277.279 122.248 277.279 123.03C277.279 123.283 276.152 122.317 274.22 120.339C270.954 117.004 268.7 115.371 265.25 113.784C261.018 111.829 257.568 111.093 253.405 111.3C248.828 111.53 245.47 112.772 239.789 116.314C234.867 119.419 233.786 120.04 233.648 119.879C233.418 119.672 235.281 117.993 237.88 116.015C243.561 111.737 248.092 109.943 253.75 109.69C255.383 109.598 256.671 109.437 256.786 109.299C257.108 108.885 257.269 107.919 257.062 107.574C256.947 107.413 256.257 107.183 255.521 107.114L254.164 106.953L255.199 106.654C255.774 106.493 256.441 106.309 256.694 106.24C257.453 106.033 258.143 105.251 258.557 104.17C258.994 103.02 258.925 102.882 257.614 102.399L256.694 102.054H257.89C258.557 102.031 259.339 101.916 259.661 101.778C260.167 101.548 260.328 101.594 261.064 102.238C262.329 103.342 262.835 103.204 264.077 101.364C264.629 100.49 264.744 100.421 264.813 100.835C264.859 101.088 264.721 101.64 264.514 102.031C264.008 102.997 264.169 103.296 265.434 103.871C267.09 104.63 267.044 104.653 268.999 101.433C270.103 99.5935 272.863 96.9025 275.37 95.1775C276.543 94.3955 277.555 93.6135 277.647 93.4755C277.9 93.0845 276.451 91.9115 275.715 91.9115C275.37 91.9115 274.542 92.2795 273.875 92.7165C272.403 93.7285 272.265 93.3375 273.599 91.7965C274.611 90.6235 274.588 90.2325 273.553 89.7035C272.587 89.1975 271.92 89.4505 270.471 90.8075C268.999 92.2105 268.769 91.7735 270.149 90.1865C271.414 88.7145 271.368 88.2085 269.873 87.1965C268.631 86.3685 268.861 86.0695 270.195 86.7595C270.586 86.9665 271.414 87.1275 272.035 87.1275C272.955 87.1275 273.392 86.9665 274.542 86.2075C275.301 85.6785 276.06 85.2185 276.198 85.1725C276.773 84.9655 275.577 84.1145 273.07 82.8725C267.987 80.3655 264.284 79.4455 259.339 79.4225C251.404 79.3995 246.321 81.5845 235.189 89.7955C233.096 91.3365 231.256 92.6015 231.095 92.6015C230.543 92.6015 230.819 91.8655 231.854 90.6005C232.429 89.9105 232.889 89.1285 232.889 88.8985C232.889 88.3925 231.003 87.0815 230.244 87.0815C229.968 87.0815 229.163 87.6795 228.289 88.5765C227.484 89.3815 226.771 90.0255 226.725 89.9795C226.61 89.8415 227.3 88.5535 228.082 87.3805C228.45 86.8515 228.749 86.2535 228.749 86.0695C228.749 85.8625 228.335 85.4945 227.806 85.2415C227.3 84.9655 226.541 84.5515 226.15 84.2985L225.414 83.8155L226.564 83.9765C227.185 84.0685 227.99 84.2755 228.335 84.4595C229.554 85.1035 230.29 84.8965 231.739 83.4935C233.809 81.5385 233.786 81.1705 231.624 79.4915C230.635 78.7325 230.244 78.5485 229.922 78.7095C229.692 78.8245 228.841 79.6755 228.059 80.5955C226.058 82.9415 225.713 82.4585 227.576 79.9285C228.358 78.8705 228.956 77.8585 228.933 77.6745C228.887 77.4905 228.013 76.7315 226.955 75.9955C225.299 74.7995 224.724 74.2015 225.23 74.2015C225.322 74.2015 226.38 74.7765 227.622 75.4665C228.841 76.1565 229.922 76.7315 230.014 76.7315C230.382 76.7315 232.889 74.2935 232.889 73.9255C232.889 73.6495 232.222 73.0745 230.98 72.2695C225.368 68.6585 219.572 66.2895 213.201 64.9785C210.211 64.3805 203.357 64.1505 199.999 64.5185C185.417 66.1975 173.204 73.3965 165.545 84.8045C163.406 88.0015 161.612 91.4975 159.128 97.3625C157.38 101.479 156.598 103.112 156.368 103.02C155.609 102.721 156.782 98.6045 159.312 92.4635C160.071 90.6925 160.669 89.0135 160.669 88.7375C160.669 88.2085 159.381 87.0815 158.783 87.0815C158.553 87.0815 157.886 88.0245 157.104 89.3815C155.954 91.4285 155.379 92.1185 155.379 91.4515C155.379 91.3365 155.793 90.3245 156.299 89.2435C157.265 87.1275 157.472 85.7935 156.851 85.5405C156.184 85.2875 155.471 85.8855 154.482 87.5185C153.93 88.4155 153.47 89.1515 153.424 89.1515C153.171 89.1515 153.884 86.8975 154.344 86.2305C155.103 85.1035 155.08 84.2525 154.321 83.6545L153.723 83.1945L154.85 83.3325C155.908 83.4475 156.092 83.3785 157.173 82.5965C158.415 81.6995 158.668 81.7455 157.909 82.7115C157.656 83.0335 157.449 83.6085 157.449 83.9995C157.449 84.7125 157.472 84.7355 158.277 84.5515C158.737 84.4365 159.266 84.1145 159.473 83.8155C159.68 83.5165 160.209 82.8955 160.646 82.4125C161.658 81.2855 161.543 81.0555 159.151 79.7905C156.759 78.5255 154.321 77.7435 151.055 77.1915C148.387 76.7545 143.189 76.2715 141.073 76.2715C140.038 76.2715 139.969 76.3175 139.969 76.8465C139.969 78.5485 141.487 79.9055 144.178 80.6185C146.018 81.1015 146.639 81.4235 146.34 81.6995C146.271 81.7685 145.374 81.6535 144.339 81.4465C141.832 80.9405 141.694 81.0095 141.901 82.6655C141.993 83.3785 142.154 84.7815 142.269 85.7935C142.43 87.2425 142.706 88.0935 143.741 90.2785C145.374 93.7285 146.662 97.1095 146.501 97.5465C146.271 98.1215 145.972 97.9375 145.558 97.0405C143.028 91.2905 141.878 89.4045 139.394 86.9435C136.565 84.1375 133.23 82.5275 129.136 81.9755C125.939 81.5615 123.087 81.9755 118.326 83.5165C116.187 84.2295 114.439 84.9195 114.439 85.0345C114.439 85.1495 115.658 86.4605 117.153 87.9555C120.028 90.8075 121.431 92.7165 123.064 96.0055C124.168 98.2595 125.341 101.456 125.548 102.836C125.732 104.055 125.686 103.963 122.949 98.5815C120.419 93.5905 118.602 91.0145 116.003 88.5535C110.506 83.4475 102.663 80.5955 95.0035 80.9405C91.6685 81.1015 88.6325 81.7225 84.7685 83.0335C80.9505 84.3215 76.9025 86.0235 76.6265 86.4375C76.4425 86.7365 76.7415 87.1735 78.2365 88.7375C81.8245 92.5325 84.5155 97.2245 85.5965 101.525C86.2175 103.963 86.1945 104.952 85.5965 104.308C85.4125 104.124 85.0445 103.204 84.7685 102.261C84.4925 101.318 83.7565 99.5475 83.1125 98.3055C77.2705 86.8745 67.9785 80.3885 56.3635 79.6525C54.1325 79.4915 49.4405 79.8825 46.8185 80.4115C44.3345 80.9175 39.0905 82.5275 38.4695 82.9875C38.1015 83.2635 38.2855 83.5165 40.5395 85.8165C45.5535 90.9225 48.4515 95.6605 50.1535 101.456C50.9125 104.009 51.2345 108.241 50.6825 108.241C50.4525 108.241 50.2455 107.643 49.9695 106.079C47.7155 93.4065 37.5035 81.9755 24.6695 77.7895C21.5645 76.7545 19.2415 76.3635 13.6985 75.9265C7.78751 75.4665 6.56851 75.3285 6.56851 75.0985C6.56851 74.4315 11.2605 74.0865 15.4925 74.4315C22.0015 74.9605 26.7855 76.3405 31.7305 79.1005C33.3405 79.9975 33.8005 80.1815 33.9615 79.9285C34.2375 79.4915 34.2145 74.7305 33.9385 72.3615C33.0185 64.7255 29.0165 55.9855 24.0025 50.6035C21.8405 48.3265 19.1955 46.3715 16.3665 44.9915C13.7675 43.7265 11.8585 43.1515 7.94852 42.4615C4.5675 41.8634 0.312531 40.8515 0.0365295 40.5984C-0.0784912 40.5065 0.0825195 40.2995 0.450531 40.1385C0.933533 39.9085 1.76151 39.9545 4.91251 40.3685C9.99551 41.0585 14.2505 42.1395 17.0565 43.4734C19.6785 44.7155 20.2765 44.7845 21.1505 43.8645C22.0245 42.9675 21.8405 42.5535 19.8855 40.9665C19.0115 40.2535 18.3445 39.5635 18.4135 39.4485C18.5745 39.1954 18.5515 39.1954 20.5755 40.5525C21.4955 41.1505 22.3235 41.5415 22.7375 41.5415C23.6115 41.5415 24.9685 40.7135 24.9685 40.1615C24.9685 39.9314 24.5545 39.2185 24.0485 38.5745C23.5425 37.9305 23.2205 37.4015 23.3355 37.4015C23.8185 37.4015 26.6245 40.2765 27.6135 41.7485C28.5335 43.1745 29.5455 44.0024 29.8905 43.6805C29.9595 43.5885 30.0285 43.1975 30.0285 42.8064C30.0285 41.5875 25.8655 35.0785 23.9565 33.2845C23.6345 32.9625 23.3585 32.6404 23.3585 32.5255C23.3585 31.7895 27.6825 35.4925 28.6715 37.0795C28.9245 37.4935 29.2695 37.8845 29.4765 37.9535C29.7755 38.0685 32.9265 37.3325 33.1795 37.0795C33.4555 36.8035 32.8575 36.0215 31.5005 34.8945C30.6955 34.2275 30.0515 33.6065 30.1205 33.5605C30.3965 33.2845 31.9145 34.0665 33.1565 35.1245C34.9505 36.6425 36.1695 37.0105 38.8145 36.8035C40.3785 36.6885 40.8385 36.5735 40.8385 36.3204C40.8385 35.6995 39.4815 33.4454 37.7335 31.0765C32.2135 23.6705 25.2905 18.4725 17.0795 15.5744C14.5495 14.6774 12.5945 14.1945 7.51151 13.1364C2.81952 12.1474 1.96851 11.7794 3.16452 11.2505C4.17651 10.8134 12.8475 12.3544 16.9645 13.7344C26.6015 16.9314 34.3065 22.8885 40.1485 31.6285C40.9305 32.7785 41.7815 33.8825 42.0575 34.0665C42.5175 34.3655 45.9215 34.8945 51.6485 35.5615C69.1975 37.6315 76.4425 42.3005 78.8805 53.0875C79.0875 53.9845 79.7545 54.0765 82.3765 53.5245C91.0015 51.7765 100.754 52.6274 109.747 55.9165C113.059 57.1355 119.476 60.3325 122.259 62.1725C126.767 65.1395 130.24 68.4515 132.977 72.2695C133.805 73.4655 134.587 74.5005 134.702 74.5695C134.817 74.6385 137.324 74.7305 140.268 74.7765C146.915 74.8685 151.285 75.3975 155.494 76.6165C158.829 77.5825 161.957 79.4915 163.613 81.5385C164.027 82.0675 164.487 82.4815 164.648 82.4815C164.809 82.4815 165.614 81.6995 166.419 80.7335C168.627 78.1575 172.928 74.0635 175.228 72.3615C181.645 67.6005 188.361 64.7715 196.526 63.3685C200.367 62.7015 207.152 62.6325 211.039 63.2305C224.402 65.2775 234.982 71.3495 241.721 80.8025C242.273 81.5615 242.756 82.0215 243.055 82.0215C243.285 82.0215 244.343 81.6305 245.378 81.1245C249.173 79.3305 252.899 78.3875 256.993 78.1805C258.419 78.1115 259.73 77.9275 259.891 77.7895C260.075 77.6515 260.949 75.5125 261.823 73.0285C264.468 65.6225 265.871 62.8855 269.068 58.9065C275.209 51.2934 283.512 46.5325 294.184 44.5545C302.878 42.9445 309.686 43.3815 315.574 45.9575C318.702 47.3375 318.495 47.3605 320.128 45.5434C328.385 36.2745 336.665 31.6975 349.039 29.5585C351.592 29.1215 352.397 29.0755 356.468 29.2135L360.999 29.3745L361.206 28.8454C361.459 28.1324 361.252 26.8214 360.884 26.8214C360.217 26.8214 359.251 27.3274 358.768 27.9025C358.492 28.2474 358.193 28.4544 358.101 28.3624C357.871 28.1324 359.734 21.6004 360.631 19.4614C363.552 12.5614 368.98 6.83445 375.857 3.40745C378.226 2.21145 382.067 0.923447 384.62 0.463448C386.966 0.0494461 392.371 -0.157555 393.935 0.141449ZM363.598 16.7704C363.207 17.2075 362.747 18.1734 362.517 19.0014C362.126 20.4044 362.126 20.4734 362.517 20.7724C362.747 20.9334 363.23 21.0714 363.598 21.0714C364.817 21.0714 365.737 20.4274 366.818 18.7714L367.876 17.2075L366.335 16.6324C365.484 16.3104 364.679 16.0344 364.541 16.0344C364.38 16.0114 363.966 16.3564 363.598 16.7704ZM361.137 22.4284C360.907 22.6814 360.608 23.3254 360.424 23.9004C360.079 25.0275 360.263 25.4414 361.114 25.4414C362.172 25.4414 364.38 23.1644 364.081 22.3824C363.874 21.8074 361.666 21.8304 361.137 22.4284ZM364.955 23.4865C364.196 24.1304 363.713 25.2114 363.989 25.6484C364.081 25.8094 365.093 26.1774 366.243 26.4534L368.313 26.9824L369.256 26.0394C369.785 25.5104 370.199 24.9814 370.199 24.8434C370.199 24.4754 369.256 23.6704 368.359 23.2794C367.094 22.7274 365.76 22.8195 364.955 23.4865ZM362.724 27.9484C362.517 28.4544 362.402 29.0525 362.471 29.3055C362.747 30.1105 365.392 30.8465 366.197 30.3175C366.335 30.2255 366.634 29.8115 366.841 29.3975C367.14 28.8455 367.163 28.5464 366.979 28.2014C366.841 27.9484 366.657 27.7414 366.565 27.7414C366.473 27.7184 365.875 27.5804 365.254 27.3964C363.414 26.8904 363.184 26.9364 362.724 27.9484ZM42.7935 36.6425C42.8625 37.1255 43.0925 37.7695 43.2995 38.0455C43.6215 38.5515 43.7365 38.5745 45.0475 38.4135C47.3245 38.1605 51.0965 38.2524 53.7185 38.6665C55.8805 39.0115 59.0775 39.9545 59.5375 40.3685C59.6295 40.4604 57.8585 40.2995 55.6275 40.0005C50.4525 39.3335 45.5075 39.2645 44.5185 39.8624C43.8515 40.2535 43.8515 40.2535 44.2425 40.9205C44.5415 41.4035 45.6225 42.0704 48.5435 43.5655C52.1085 45.3825 52.5915 45.7045 54.1095 47.2685C55.6045 48.7865 56.2025 49.8214 55.5585 49.8214C55.4435 49.8214 54.8225 49.3615 54.2015 48.8095C51.0045 45.9575 46.6575 43.8185 42.7935 43.1285C40.8845 42.8064 38.0555 42.9675 36.0085 43.5655C33.9155 44.1635 25.1755 47.7514 24.6695 48.2115C24.2555 48.6025 24.2785 48.6715 25.5435 50.1665C29.9135 55.3185 32.1905 59.8955 34.1685 67.5085L34.4215 68.5205L35.8245 68.3595C37.5725 68.1755 37.6875 68.1065 37.5495 67.1635C37.3885 66.1285 37.6415 66.1745 38.5385 67.3015C38.9985 67.8765 39.5505 68.2905 39.9415 68.3825C40.9075 68.5665 40.9535 68.8425 40.0565 69.0035C39.0675 69.1875 38.6765 69.6475 38.8605 70.4295C38.9755 70.8665 39.3435 71.1655 40.2635 71.5795C40.9535 71.8785 41.5285 72.2235 41.5285 72.3615C41.5285 72.4765 40.9995 72.5915 40.3785 72.5915C39.0675 72.5915 39.0905 72.5455 38.8835 74.5925C38.7225 76.3635 38.6535 76.2945 42.2415 77.9965L44.9095 79.2845L47.1865 78.7095C53.0285 77.2145 59.1235 77.5365 64.6895 79.6295L66.8285 80.4345L67.6795 79.9745C68.1625 79.7445 68.7835 79.2845 69.0825 78.9855C69.5655 78.4565 69.5655 78.4105 69.1975 78.0655C68.9675 77.8815 67.9555 77.3985 66.9435 76.9845C65.9315 76.5935 64.8505 76.0875 64.5285 75.9035C63.9765 75.5815 64.0225 75.5815 65.1035 75.7195C65.7245 75.7885 67.1735 76.1795 68.3235 76.5475C70.6005 77.2835 71.5895 77.2835 72.8545 76.5015C73.6595 76.0185 74.4185 75.9035 74.4185 76.2485C74.4185 76.3635 74.0045 76.8005 73.4985 77.1915C72.9925 77.5825 72.5785 78.0655 72.5785 78.2495C72.5785 78.6635 74.2115 79.4225 75.6375 79.6985C76.5575 79.8595 76.9025 79.7905 78.9955 78.9165C80.2605 78.3645 81.3415 77.9965 81.4105 78.0655C81.7325 78.3875 81.4105 78.6405 79.5015 79.6065C78.3745 80.1585 77.3855 80.7335 77.2935 80.8715C77.0635 81.2395 78.0985 82.5045 78.9265 82.8495C79.7775 83.2175 79.8695 83.1945 83.1585 81.8375C87.3445 80.1125 91.6225 79.2615 95.9465 79.2615C99.3045 79.2615 101.881 79.6755 105.285 80.7795C106.665 81.2395 107.953 81.5385 108.114 81.4695C108.298 81.4005 108.597 81.0325 108.804 80.6185C109.333 79.6295 108.988 78.9165 107.723 78.3645C107.171 78.1115 105.538 77.3985 104.089 76.7545C101.628 75.6735 101.513 75.6045 102.364 75.5815C103.744 75.5815 105.791 76.1795 107.93 77.2145C110.483 78.4105 111.587 78.4105 112.99 77.1225C113.749 76.4555 113.657 76.1795 112.461 75.6045C111.886 75.3055 111.472 75.0295 111.541 74.9605C111.587 74.8915 112.438 75.0295 113.404 75.2365C115.428 75.6965 116.325 75.6045 118.487 74.7535C119.315 74.4085 120.051 74.2015 120.12 74.2935C120.35 74.5235 119.982 74.7535 118.05 75.5815C117.084 75.9955 116.279 76.4555 116.279 76.6165C116.279 77.0765 119.085 79.5605 120.304 80.1585C121.27 80.6415 121.546 80.6645 123.248 80.5265C124.283 80.4345 126.123 80.3425 127.365 80.3195C128.584 80.3195 129.642 80.2275 129.734 80.1355C129.826 80.0665 129.159 78.7555 128.285 77.2605C127.411 75.7655 126.468 74.0865 126.192 73.5115L125.686 72.4765L126.744 73.6265C128.469 75.5355 129.527 77.0075 129.941 78.1575C130.447 79.5605 131.045 80.2735 132.218 80.9865C133.184 81.5385 135.576 82.2745 135.875 82.1135C136.427 81.7915 133.92 76.2715 131.988 73.5575C128.377 68.4745 121.546 63.1615 113.864 59.4585C108.873 57.0434 104.917 55.8475 99.2585 54.9734C95.6935 54.4215 88.3565 54.4215 85.1135 54.9734C82.6985 55.3645 72.9235 57.6645 69.0825 58.7225C66.8745 59.3205 66.3915 59.3205 66.7135 58.7685C66.9435 58.4005 69.8645 57.0895 71.4975 56.6065C73.2685 56.1005 73.5905 55.5945 73.2455 53.9845C73.1075 53.3175 72.7625 52.5125 72.4635 52.1674C71.9575 51.5695 71.8885 51.5695 70.8765 51.8455C68.6455 52.4435 68.3695 52.0525 70.3015 51.0865C70.9225 50.7645 71.4285 50.3505 71.4285 50.1435C71.4285 49.9365 71.0375 49.3155 70.5545 48.7405L69.7035 47.6824L70.6925 48.2345C71.2445 48.5335 72.1415 49.1775 72.6935 49.6375C73.6135 50.4425 73.7975 50.5115 75.1085 50.5115C76.4655 50.5115 76.5115 50.4884 76.3735 49.9825C75.4075 46.7625 72.1645 43.2205 68.5765 41.4495C67.6565 40.9895 65.6785 40.2995 64.1835 39.9085C60.3425 38.8965 45.0935 35.8375 43.7365 35.8145L42.6325 35.7915L42.7935 36.6425ZM365.714 38.7815C365.139 39.5175 364.679 40.2075 364.679 40.3225C364.679 40.6215 367.186 42.2775 367.416 42.1165C367.807 41.8865 369.049 39.5405 369.049 39.0345C369.049 38.5285 367.324 37.0795 366.956 37.3095C366.841 37.3785 366.289 38.0225 365.714 38.7815ZM37.2735 38.0685C36.3995 38.2524 36.3305 38.6435 36.9745 39.9314C37.4805 40.9205 37.5725 40.9665 38.6535 41.1045C39.2745 41.1735 40.3785 41.1274 41.0685 40.9895C42.2185 40.7595 42.3335 40.6674 42.4025 40.0925C42.4715 39.6095 42.2875 39.2645 41.6895 38.6665C40.9305 37.9075 40.7925 37.8615 39.4125 37.8845C38.6305 37.9075 37.6645 37.9765 37.2735 38.0685ZM30.7645 38.6665C30.6265 38.7125 30.4885 38.9425 30.4885 39.1495C30.4885 39.6554 31.4085 42.5075 31.6615 42.7835C31.8455 42.9905 35.6175 41.9095 36.1005 41.5185C36.2155 41.4035 36.0775 40.7595 35.7785 40.0235C35.1115 38.3904 34.5135 38.0915 32.4895 38.3675C31.7075 38.4594 30.9255 38.5975 30.7645 38.6665ZM24.4625 41.9785C23.5885 42.7605 23.6575 43.0135 25.1525 44.6465C26.1185 45.6585 26.1875 45.7045 26.8315 45.4515C27.9585 44.9685 28.0735 44.6695 27.4985 43.5195C26.8085 42.0935 26.1645 41.3115 25.6355 41.3115C25.4055 41.3115 24.8765 41.6105 24.4625 41.9785ZM21.6795 44.8535L20.8285 45.6355L21.6565 46.3715C23.1055 47.6134 23.4965 47.7055 24.2785 46.9235L24.9685 46.2565L24.0255 45.1525C23.5195 44.5545 22.9675 44.0714 22.8295 44.0714C22.6685 44.0945 22.1625 44.4395 21.6795 44.8535ZM297.795 45.2445C287.951 46.3025 279.349 50.4655 272.219 57.6414C269.735 60.1255 268.562 61.7125 266.446 65.4385C265.066 67.8995 265.066 67.9915 267.205 68.4515C269.16 68.8655 269.827 68.5895 271.759 66.6115C273.484 64.8635 274.726 63.8515 275.508 63.5525C275.738 63.4605 274.887 64.5415 273.622 65.9675C272.334 67.3705 271.299 68.6815 271.299 68.8885C271.299 69.0955 271.69 69.5785 272.15 69.9925L273.024 70.7285L272.219 70.5215C270.471 70.0385 270.195 70.1535 269.459 71.7175C269.068 72.5225 268.769 73.3505 268.769 73.5805C268.769 74.0175 269.758 74.6845 271.253 75.2595C272.219 75.6505 272.242 75.6275 272.794 75.1215C273.116 74.8225 274.059 73.6725 274.91 72.5455C275.761 71.4415 276.52 70.5215 276.612 70.5215C277.095 70.5215 276.865 71.0735 275.416 73.3505C274.542 74.7305 273.829 75.9955 273.829 76.1565C273.829 76.3405 274.45 76.9615 275.209 77.5365C275.968 78.1345 276.543 78.7095 276.474 78.8245C276.336 79.0315 275.301 78.5945 274.22 77.8355L273.576 77.3755L273.001 77.9045C272.702 78.1805 272.334 78.8245 272.173 79.3075C271.805 80.5495 272.219 81.1935 273.806 81.9295C277.693 83.7465 281.166 86.4835 283.167 89.2895C283.765 90.1175 284.455 90.8305 284.754 90.8995C285.467 91.0835 287.882 90.6005 288.296 90.1865C288.595 89.9105 288.595 89.6345 288.342 88.3005C287.905 86.0235 287.652 85.7015 286.18 85.6785H284.984L285.95 85.2415C287.33 84.6205 287.652 83.9765 287.767 81.7455C287.859 79.6755 288.273 77.4675 288.595 77.2835C288.71 77.2145 288.779 78.6405 288.756 80.4575C288.71 82.2745 288.779 83.9075 288.871 84.0455C289.078 84.3675 290.596 84.3905 291.884 84.0915C292.988 83.8385 293.54 83.2175 293.724 82.0675C294.023 80.2965 295.242 76.7775 296.07 75.3975C298.646 71.0505 303.43 67.6925 309.456 65.9445C310.767 65.5765 311.986 65.1165 312.17 64.9325C312.354 64.7485 312.653 63.7365 312.837 62.6785C313.021 61.6205 313.32 60.2175 313.504 59.5505C314.171 57.2735 313.941 56.8595 311.963 56.5835L310.951 56.4454L310.652 57.6185C310.192 59.3895 309.801 59.1595 309.916 57.1814C309.985 56.1005 309.548 55.7555 307.363 55.1115L305.592 54.5825L305.454 53.1795C305.362 52.4205 305.408 51.3165 305.523 50.7645C305.661 50.2125 305.707 49.6145 305.638 49.4535C305.5 49.0854 305.362 49.0854 301.774 48.9935C298.485 48.9245 298.669 48.9475 298.669 48.5564C298.669 48.2805 298.991 48.2115 300.21 48.1885C302.349 48.1655 305.569 48.0045 306.19 47.8665C306.673 47.7514 307.455 46.7165 307.731 45.7505C307.869 45.3365 307.777 45.2445 307.248 45.1525C305.891 44.9454 299.934 44.9915 297.795 45.2445ZM308.789 46.6015L307.869 47.9585L309.387 48.4415C311.733 49.1544 312.515 49.0854 313.366 48.0505C314.125 47.1535 314.24 46.7165 313.849 46.4865C313.711 46.3945 312.745 46.0955 311.71 45.7965C310.675 45.4975 309.801 45.2445 309.778 45.2445C309.755 45.2215 309.318 45.8425 308.789 46.6015ZM315.321 47.5905C315.068 47.7514 314.447 48.1885 313.987 48.5795L313.136 49.2924L314.746 50.2355L316.356 51.1555L317.138 49.7524L317.92 48.3265L317.092 47.8204C316.149 47.2225 315.988 47.1995 315.321 47.5905ZM307.34 49.6605C306.972 49.9135 305.638 54.1225 305.845 54.3064C305.891 54.3295 306.834 54.4215 307.961 54.4675L309.985 54.5825L310.422 53.8695C311.089 52.7885 311.641 50.6954 311.365 50.2815C311.25 50.0975 310.606 49.8214 309.916 49.6605C308.237 49.3155 307.8 49.3155 307.34 49.6605ZM312.423 51.9375C311.342 54.8354 311.342 54.7664 312.676 55.4335C313.32 55.7555 313.918 56.0315 314.033 56.0315C314.309 56.0315 315.689 53.1795 315.689 52.6045C315.689 52.3055 315.252 51.7995 314.47 51.2244C313.826 50.6954 313.228 50.2815 313.159 50.2815C313.09 50.2815 312.745 51.0405 312.423 51.9375ZM74.4415 51.8685C74.1885 52.0294 74.1885 52.2135 74.4185 52.9495C74.5795 53.4555 74.8555 54.1455 75.0395 54.5135C75.3615 55.1115 75.4535 55.1575 76.3275 55.0424C77.8685 54.8354 78.3745 53.5014 77.3855 52.2595C76.9945 51.7765 76.7185 51.6615 75.8445 51.6615C75.2465 51.6615 74.6255 51.7535 74.4415 51.8685ZM36.1005 69.3945C34.6975 70.2685 34.8585 71.6715 36.3535 71.6715C37.4805 71.6715 37.8485 71.4645 37.8485 70.8205C37.8485 70.3145 37.2045 68.9115 36.9745 68.9115C36.9055 68.9115 36.5145 69.1185 36.1005 69.3945ZM264.744 69.6475C264.261 69.8545 263.249 71.9935 263.249 72.7985C263.249 73.1895 264.284 73.5115 265.641 73.5115C267.067 73.5115 267.32 73.3045 268.194 71.3725C268.861 69.9465 268.769 69.5095 267.78 69.3025C267.113 69.1415 265.388 69.3485 264.744 69.6475ZM35.8015 73.1205C35.6405 73.3275 35.6175 73.9025 35.7325 74.7995C35.8705 76.0645 35.9395 76.1565 36.5145 76.2255C37.0205 76.2945 37.2735 76.1105 37.8485 75.3285L38.5385 74.3395L37.8025 73.5805C37.0435 72.7985 36.2385 72.6145 35.8015 73.1205ZM262.168 75.4665C261.455 76.2255 261.179 76.7085 261.179 77.1915C261.179 78.0655 261.639 78.2495 264.031 78.4795C266.308 78.6865 266.469 78.5485 266.469 76.4785C266.469 74.6385 266.285 74.4545 264.422 74.4315C263.226 74.4315 263.111 74.4775 262.168 75.4665ZM232.59 75.7885C231.854 76.5475 231.279 77.2605 231.279 77.3985C231.279 77.8125 233.832 80.1815 234.43 80.3195C235.074 80.4805 236.201 80.0205 237.42 79.1005L238.202 78.5025L236.178 76.4555C235.074 75.3515 234.108 74.4315 234.016 74.4315C233.947 74.4315 233.303 75.0525 232.59 75.7885ZM267.872 76.8235C267.481 77.5135 267.205 78.2265 267.297 78.4105C267.458 78.8705 268.769 79.8825 269.597 80.1815C270.126 80.3885 270.31 80.3425 270.747 79.9285C271.437 79.2845 271.851 78.2495 271.667 77.5365C271.529 76.9845 269.505 75.5815 268.838 75.5815C268.7 75.5815 268.263 76.1335 267.872 76.8235ZM135.691 76.1105C135.53 76.5475 136.45 78.8015 137.025 79.4225C137.876 80.3425 140.015 79.8825 139.647 78.8705C139.578 78.6865 139.509 78.3875 139.509 78.2265C139.509 77.7895 138.152 76.2715 137.577 76.0415C136.818 75.7425 135.829 75.7885 135.691 76.1105ZM35.6865 78.5255C35.4335 79.3995 35.4565 80.3425 35.7555 81.0555C36.1235 81.9295 36.4685 81.7685 37.1815 80.3885C37.7105 79.3305 37.7335 78.6175 37.2735 77.9275C36.9285 77.4675 36.8825 77.4445 36.3535 77.7895C36.0545 77.9965 35.7555 78.3185 35.6865 78.5255ZM112.944 78.3645C112.507 78.6635 112.185 79.0085 112.208 79.1465C112.369 79.6065 115.888 82.4815 116.279 82.4815C116.877 82.4815 119.269 81.5385 119.269 81.3085C119.269 81.1935 118.51 80.3195 117.567 79.3535L115.865 77.5825L114.807 77.6975C114.232 77.7665 113.381 78.0655 112.944 78.3645ZM39.1365 78.3875C38.8835 78.7785 37.8485 82.0215 37.8485 82.4125C37.8485 82.4585 39.0905 81.8605 40.6085 81.1015C42.1265 80.3425 43.3685 79.6295 43.3685 79.5375C43.3685 79.2845 42.4945 78.8015 41.2065 78.3185C39.6655 77.7895 39.5275 77.7895 39.1365 78.3875ZM69.6115 79.8825C68.9675 80.3655 68.4385 80.8255 68.4385 80.9405C68.4385 81.0325 69.0825 81.5155 69.8645 82.0215C71.7045 83.2405 72.5785 83.2405 73.6365 82.1135C74.0735 81.6765 74.4185 81.2165 74.4185 81.1015C74.4185 80.9175 72.2795 79.4225 71.6585 79.1925C71.0145 78.9625 70.8075 79.0315 69.6115 79.8825ZM237.328 80.4575C236.523 81.0095 235.879 81.5845 235.879 81.7455C235.879 82.2515 237.972 84.7815 238.409 84.7815C239.007 84.7815 241.744 83.0335 241.744 82.6425C241.744 82.2745 239.237 79.4915 238.915 79.4915C238.823 79.4915 238.11 79.9285 237.328 80.4575ZM109.747 80.9405C109.402 81.3775 109.149 81.8375 109.149 81.9755C109.149 82.0905 110.092 82.7345 111.219 83.3785L113.312 84.5285L114.094 83.8385C114.784 83.2175 114.853 83.0795 114.6 82.6655C114.209 81.9985 111.449 80.1815 110.828 80.1815C110.529 80.1815 110.092 80.4805 109.747 80.9405ZM137.876 81.1015C137.347 81.4005 137.301 82.2515 137.807 83.3095C138.359 84.4825 141.349 86.7825 141.349 86.0235C141.349 85.4485 140.107 81.1935 139.9 81.0555C139.509 80.8025 138.405 80.8255 137.876 81.1015ZM160.784 83.8845L159.45 85.7245L159.91 86.3225C160.945 87.7255 161.451 87.6335 162.647 85.8165L163.498 84.5515L163.222 83.2865C162.831 81.5155 162.417 81.6075 160.784 83.8845ZM73.9815 82.9645L72.9695 83.8845L73.6365 84.5745C74.5565 85.5635 75.4765 86.0005 75.9825 85.7245C76.1895 85.6095 76.7415 85.1495 77.1555 84.6895L77.9605 83.8615L77.0635 82.9415C75.9135 81.7685 75.2925 81.7685 73.9815 82.9645ZM233.004 84.2295L231.302 85.7475L232.728 86.9895C233.51 87.6795 234.223 88.2315 234.338 88.2315C234.637 88.2315 236.983 86.3915 237.098 86.0695C237.259 85.6785 236.523 84.4595 235.58 83.4475C235.189 83.0565 234.821 82.7115 234.775 82.7115C234.729 82.7115 233.924 83.4015 233.004 84.2295ZM289.584 85.3335C289.17 85.6325 289.147 85.7705 289.423 87.3345C289.837 89.6805 290.09 90.0025 291.677 90.2095C293.287 90.3935 293.425 90.2325 293.241 88.2315C293.08 86.4835 292.781 85.5405 292.252 85.2415C291.7 84.9195 290.067 84.9655 289.584 85.3335ZM275.554 86.5755C275.301 86.7135 274.749 87.1735 274.335 87.6105L273.576 88.3925L274.726 89.2435L275.876 90.0945L277.946 89.2205C280.269 88.2545 280.476 87.9325 279.418 86.9435C278.383 86.0005 276.888 85.8395 275.554 86.5755ZM279.119 89.8415C278.107 90.3475 277.279 90.8535 277.279 90.9685C277.279 91.3135 278.866 92.5785 279.51 92.7395C279.97 92.8545 280.453 92.7165 281.373 92.2335C283.236 91.2215 283.259 91.1295 282.109 89.9565C281.557 89.3815 281.051 88.9215 281.028 88.9215C280.982 88.9215 280.131 89.3355 279.119 89.8415ZM259.822 104.561C259.431 105.205 259.109 105.803 259.109 105.918C259.109 106.01 259.477 106.286 259.914 106.539C260.834 107.022 261.34 106.861 261.777 105.918C262.421 104.584 262.398 104.354 261.593 103.871C261.179 103.618 260.765 103.411 260.673 103.411C260.604 103.411 260.213 103.94 259.822 104.561ZM263.18 105.412C262.881 105.895 262.559 106.401 262.467 106.562C262.26 106.953 264.077 107.85 264.721 107.689C265.181 107.574 266.239 106.194 266.239 105.734C266.239 105.412 264.79 104.561 264.238 104.561C263.87 104.561 263.548 104.837 263.18 105.412ZM258.603 107.942C258.143 108.356 258.051 109.391 258.465 109.805C258.626 109.966 259.178 110.081 259.684 110.081C260.489 110.081 260.696 109.989 260.903 109.506C261.34 108.563 261.225 108.241 260.42 107.896C259.454 107.459 259.109 107.482 258.603 107.942ZM262.214 109.161C261.846 109.529 261.593 109.874 261.662 109.92C261.984 110.196 263.617 111.231 263.709 111.231C263.778 111.231 264.031 110.909 264.261 110.495L264.698 109.759L263.939 109.115C263.502 108.77 263.088 108.471 263.019 108.471C262.927 108.471 262.582 108.77 262.214 109.161Z" fill="#E7E7E7"/>
</svg>
