<svg width="542" height="406" viewBox="0 0 542 406" fill="none" xmlns="http://www.w3.org/2000/svg">
<path d="M333.648 80.5682C338.358 82.4553 340.476 83.9518 347.969 90.6872C354.95 96.9943 358.919 100.413 367.745 107.558C378.968 116.725 383.889 121.35 388.73 127.338C392.397 131.849 393.236 132.648 395.721 134.054C400.241 136.56 404.287 140.611 405.985 144.246C407.511 147.558 407.589 147.413 404.149 148.014C402.474 148.278 401.068 148.658 401.021 148.813C400.964 148.998 401.007 151.617 401.082 154.686C401.315 161.762 400.781 163.832 397.961 167.162C396.735 168.612 396.467 169.816 396.296 174.569C396.16 179.535 395.62 177.542 402.831 199.216C408.441 216.167 409.464 219.02 409.897 219.153C410.021 219.191 411.214 218.068 412.502 216.637C417.533 211.076 454.641 168.331 455.552 167.021C456.097 166.241 457.27 164.3 458.143 162.673C462.94 153.792 469.641 149.861 476.489 151.965C479.371 152.85 480.931 154.175 482.487 157.056C483.528 158.966 483.817 159.901 483.79 161.314C483.743 166.545 480.361 170.379 475.17 171.051C473.228 171.301 472.58 171.203 469.905 170.415C467.603 169.742 466.738 169.577 466.416 169.851C465.461 170.641 463.826 179.275 463.579 184.715C463.155 194.263 464.681 204.309 468.761 218.625C474.643 239.214 476.238 253.341 474.211 266.559C473.589 270.463 471.109 278.093 469.518 280.955C465.645 287.819 461.013 292.521 454.071 296.683C446.998 300.939 439.893 305.965 439.599 306.923C439.39 307.603 451.216 342.844 452.443 345.251L452.949 346.253L453.424 344.707C453.69 343.841 454.225 342.652 454.611 342.059L455.322 340.958L455.807 341.919C456.086 342.445 457.295 347.452 458.496 353.033C461.441 366.628 462.139 370.429 461.873 371.295C461.654 372.006 461.592 371.987 460.491 371.378C458.588 370.286 442.529 351.139 441.443 348.606L440.781 347.117L441.851 347.276C442.437 347.355 443.827 347.579 444.918 347.779L446.947 348.131L446.748 347.122C446.652 346.551 444.123 339.108 441.117 330.57L435.654 315.017L434.2 316.77C433.402 317.71 431.445 319.443 429.833 320.606C428.231 321.738 426.395 323.408 425.71 324.314C423.942 326.647 421.301 328.069 417.341 328.816C415.576 329.153 413.885 329.581 413.632 329.741C413.339 329.921 412.23 331.543 411.136 333.339C408.113 338.434 405.487 340.91 399.902 343.965C389.826 349.499 379.602 352.754 368.487 353.942C363.262 354.502 357.841 354.596 354.46 354.234C340.983 352.734 328.523 340.31 324.959 324.867C323.913 320.214 322.473 317.504 320.831 317C320.242 316.819 319.315 317.075 317.815 317.765C314.957 319.12 313.939 319.011 312.86 317.224C311.793 315.509 311.556 314.184 312.041 312.607C312.81 310.102 315.806 308.079 318.565 308.148C319.602 308.196 320.572 308.46 321.931 309.114C324.088 310.149 324.51 310.211 324.924 309.526C325.102 309.277 326.345 305.564 327.677 301.337C329.019 297.079 330.414 292.871 330.761 291.963C331.108 291.054 332.659 286.556 334.177 281.946C337.465 272.128 337.64 270.895 336.131 268.3C335.64 267.472 334.804 265.997 334.279 265.057C333.668 263.956 333.119 263.314 332.771 263.342C332.495 263.359 332.211 263.509 332.173 263.632C332.135 263.756 330.995 264.488 329.661 265.297C327.225 266.714 324.405 267.506 321.657 267.508C317.854 267.524 315.651 268.404 311.677 271.515C306.384 275.607 299.033 279.779 289.653 284.037C281.855 287.564 277.507 288.36 271.914 287.251C267.257 286.294 265.951 286.569 256.416 290.34C248.547 293.439 245.993 294.245 241.316 295.008C235.415 296.003 229.026 295.936 220.676 294.859C212.397 293.771 210.135 293.956 198.219 296.759C194.713 297.576 186.748 299.326 180.578 300.645C174.377 301.955 168.738 303.2 168.004 303.381C165.998 303.949 161.832 304.598 159.049 304.826C155.058 305.122 151.061 304.774 145.806 303.668C142.374 302.918 139.824 302.608 136.94 302.501C131.627 302.357 128.023 301.284 124.024 298.735C119.889 296.078 115.913 294.01 111.936 292.382C107.703 290.709 105.395 289.391 98.1746 284.635C91.9345 280.552 87.8764 278.087 80.7451 274.035C73.4684 269.904 68.4922 266.785 64.2857 263.699C62.3137 262.281 60.3965 261.015 60.0247 260.901C59.312 260.682 49.5916 262.298 44.9748 263.418C43.6502 263.755 41.6564 264.395 40.5203 264.892C39.3842 265.389 38.1551 265.857 37.7978 265.917C37.4404 265.976 34.9259 265.44 32.2016 264.705C27.9494 263.534 27.0388 263.187 26.0348 262.37C23.6619 260.491 23.7117 257.9 26.1904 256.124C26.9572 255.615 29.7024 253.413 32.2856 251.296C37.5521 246.958 39.112 246.185 44.5106 245.17C49.1134 244.317 49.1229 244.286 52.4263 238.059C56.5811 230.165 60.3715 227.099 65.8403 227.291C70.7039 227.465 73.9709 229.856 77.4368 235.794C80.0913 240.4 81.7085 241.979 84.6952 242.965C87.7129 243.959 91.4928 244.681 97.217 245.255C105.789 246.163 107.005 246.401 114.618 248.774C121.125 250.773 122.543 251.344 128.165 254.018C135.3 257.395 136.063 257.562 138.368 256.239C142.898 253.638 144.884 252.691 149.219 250.944C155.636 248.38 158.458 246.811 161.386 244.123C162.741 242.915 163.812 241.857 163.791 241.816C163.769 241.776 162.122 241.067 160.134 240.253C155.526 238.364 152.643 236.598 149.28 233.636C145.927 230.643 142.631 228.345 139.091 226.513C137.575 225.708 135.353 224.552 134.149 223.945C132.954 223.307 129.642 221.173 126.795 219.182C123.948 217.19 120.417 214.887 119.012 214.05C115.643 212.101 112.915 209.503 111.456 206.855C110.052 204.36 109.529 202.642 109.208 199.16C108.898 196.086 108.358 194.973 105.288 191.39C99.6836 184.795 97.1721 180.166 95.6165 173.529C95.035 171.117 94.2692 167.87 93.8815 166.262C92.4887 160.419 89.5231 154.398 83.7143 145.71C79.4902 139.37 79.4687 139.33 77.2227 138.031C76.1212 137.422 73.3005 135.675 70.9876 134.152C65.2363 130.355 62.3826 128.937 58.4807 127.84C55.7039 127.054 55.0817 126.762 54.366 126C53.2711 124.818 52.7859 123.417 52.8916 121.859C53.0443 119.706 53.975 118.774 58.2736 116.372C60.4694 115.185 63.0841 113.518 64.1198 112.686C66.1817 111.052 67.7061 110.505 69.8223 110.681C70.623 110.724 72.1144 110.506 73.203 110.163C75.9711 109.322 77.8773 109.298 80.5827 110.096C83.3095 110.933 84.9643 111.949 89.1402 115.466C92.5221 118.366 95.4882 120.191 97.9981 120.962C100.043 121.59 102.923 123.253 104.331 124.633C106.241 126.472 107.576 129.522 108.183 133.397C109.289 140.505 110.226 141.537 128.277 155.746C135.949 161.792 139.232 166.557 140.951 173.988C141.595 176.859 142.471 178.313 144.288 179.683C146.198 181.082 148.362 181.544 154.367 181.866L160.012 182.145L167.13 184.366C171.034 185.565 176.276 187.379 178.791 188.355C181.265 189.352 184.143 190.472 185.137 190.879C186.14 191.255 187.983 191.991 189.225 192.474C190.944 193.171 192.252 193.438 194.635 193.628C200.192 194.084 206.688 194.353 210.563 194.325C216.263 194.317 219.256 194.729 224.841 196.309C229.929 197.737 232.59 198.791 236.485 200.902C239.301 202.444 244.548 204.902 245.881 205.311C247.337 205.759 248.611 205.033 253.208 200.997C257.375 197.371 257.541 197.049 255.806 196.516C254.628 196.155 253.893 195.015 254.188 194.056C254.625 192.634 256.729 190.641 260.13 188.403C261.947 187.236 263.378 186.22 263.335 186.139C263.292 186.058 261.135 185.903 258.581 185.829C249.614 185.545 247.938 185.368 247.113 184.743C245.525 183.51 246.3 182.09 249.649 180.242C251.004 179.474 252.011 178.735 251.854 178.585C251.737 178.414 248.838 177.692 245.468 176.962C239.367 175.628 239.336 175.619 237.779 174.396C236.295 173.264 236.231 173.142 236.762 172.629C238.723 170.659 239.988 169.965 242.947 169.385C244.65 169.028 246.036 168.71 246.046 168.679C246.103 168.493 238.5 166.97 231.839 165.803C227.587 165.072 223.075 164.194 221.826 163.844C219.793 163.287 219.481 163.089 219.166 162.35C218.686 161.153 219.221 160.404 221.529 159.184C222.865 158.478 224.566 158.019 227.375 157.596C229.54 157.28 231.213 156.914 231.127 156.752C231.041 156.59 228.287 155.507 225 154.396C219.334 152.418 218.13 151.812 217.073 150.506C216.809 150.154 216.956 149.894 217.868 149.024C218.789 148.122 219.47 147.892 222.432 147.414L225.893 146.853L218.869 144.661C215.036 143.45 211.615 142.331 211.303 142.134C210.991 141.936 210.338 141.634 209.873 141.491C208.767 141.118 207.833 139.41 208.35 138.722C209.054 137.754 210.1 137.331 212.899 136.939C214.452 136.74 216.075 136.426 216.492 136.283C217.223 136 217.192 135.991 216.226 135.491C215.666 135.217 212.646 134.12 209.514 133.056C198.897 129.422 197.705 128.887 195.024 126.574C192.825 124.681 192.891 123.584 195.327 122.167L196.592 121.472L194.732 120.901C189.372 119.254 186.157 116.473 186.419 113.745C186.577 112.237 187.994 111.488 191.682 110.962C199.518 109.85 212.115 111.453 231.028 116.012C232.327 116.309 237.552 117.847 242.643 119.377L251.908 122.223L251.58 120.972C251.38 120.301 251.329 119.473 251.433 119.133C251.68 118.329 253.474 117.459 255.356 117.293L256.869 117.115L253.228 114.947C251.23 113.724 249.394 112.415 249.169 112.042C248.656 111.174 249.031 109.732 249.843 109.406C251.356 108.788 250.717 108.22 245.097 105.207C240.672 102.833 239.454 102.052 238.64 101.058L237.667 99.8111L239.215 98.9669C240.308 98.389 241.399 98.149 243.038 98.1112C244.299 98.0923 245.302 98.0283 245.259 97.9474C245.247 97.876 242.398 96.6624 238.939 95.2275C235.511 93.8021 232.434 92.4505 232.059 92.234C231.716 92.027 231.103 91.2633 230.726 90.5044L230.047 89.1794L231.338 88.73C232.029 88.4684 233.161 88.207 233.826 88.1405C235.012 88.0312 235.022 88.0003 234.335 87.5863C233.93 87.3603 231.317 86.1514 228.54 84.926C223.471 82.6582 222.544 82.0349 222.158 80.5291C221.857 79.5228 224.072 78.2743 226.314 78.151C229.274 78.0111 229.345 77.9992 229.042 77.7708C228.866 77.6828 226.236 76.198 223.139 74.4682C216.248 70.6255 215.392 69.9902 215.262 68.4274C215.016 65.9154 216.441 65.4732 223.728 65.8169C226.838 65.9601 233.459 67.1481 236.774 68.1668C238.169 68.5952 241.412 69.1856 243.993 69.5048C248.116 69.9931 249.827 70.3834 257.674 72.6587C267.089 75.3482 273.356 77.5781 285.108 82.3731C293.671 85.8497 295.044 86.6778 297.569 89.7205C298.74 91.0956 299.167 91.3621 303.167 93.1325C305.56 94.1724 307.758 95.1861 308.111 95.3622C308.974 95.8642 309.984 95.2269 310.374 93.9591C312.226 87.9293 320.574 79.1912 324.76 78.9207C326.695 78.8044 331.381 79.6687 333.648 80.5682ZM326.268 81.076C324.843 81.0782 323.04 81.5394 321.918 82.21C320.968 82.7641 314.563 89.1547 314.392 89.7113C314.335 89.8969 314.656 90.0634 315.109 90.1349C315.931 90.2182 316.092 90.9105 315.318 91.1125C314.798 91.2576 314.452 92.6062 314.828 92.9251C315.026 93.0535 315.951 93.1346 316.883 93.0824C317.845 93.0397 318.655 93.0517 318.689 93.1635C318.763 93.2539 318.099 93.7605 317.27 94.2504C315.653 95.2088 315.182 96.0793 315.624 97.3996C315.956 98.4153 316.629 98.6557 317.898 98.1659C318.822 97.8068 319.695 97.8379 319.59 98.178C319.562 98.2708 318.564 98.9795 317.404 99.7738C316.223 100.528 315.268 101.317 315.264 101.553C315.272 102.3 316.89 102.662 318.346 102.229C320.239 101.694 320.419 102.324 318.604 103.154C317.782 103.511 317.108 104.048 316.985 104.45C316.814 105.007 317.48 110.897 318.442 117.588C318.682 119.016 318.725 119.096 319.28 118.725C319.601 118.452 319.939 118.014 320.044 117.674C320.139 117.365 320.341 117.258 320.467 117.398C320.615 117.579 321.302 117.553 322.035 117.372C322.738 117.182 323.403 117.116 323.458 117.268C323.522 117.389 323.053 117.922 322.38 118.459C319.925 120.379 321.156 121.671 324.443 120.684C325.522 120.372 326.38 120.23 326.332 120.385C326.285 120.539 325.409 121.184 324.368 121.811C322.327 123.046 321.747 124.052 322.341 125.317C322.645 125.986 322.604 126.007 321.21 125.579C319.877 125.169 319.765 125.203 319.699 125.859C319.669 126.29 319.567 127.172 319.47 127.819C319.302 128.918 319.388 129.08 320.163 129.318C321.557 129.746 322.822 129.052 323.826 127.33C327.236 121.305 333.255 118.823 339.617 120.743C341.848 121.429 342.522 121.331 342.355 120.332C342.113 119.243 338.795 113.486 335.54 108.628C330.623 101.229 330.136 100.166 330.278 96.724L330.317 95.3824L331.328 97.7232C334.237 104.37 337.852 109.711 339.866 110.329C340.703 110.586 341.012 109.802 340.515 108.769C340.19 108.06 340.19 108.06 340.629 108.398C340.911 108.586 341.363 108.657 341.637 108.539C342.073 108.334 342.426 108.51 343.266 109.309C344.778 110.789 345.395 110.877 346.762 109.741C348.34 108.466 348.733 108.621 348.025 110.264C347.695 111.009 347.529 111.77 347.658 112.012C348.044 112.74 350.23 113.243 351.368 112.848L352.426 112.496L352.684 113.421C352.83 113.94 353.384 114.787 353.94 115.296C355.001 116.367 354.818 116.412 353.206 115.477C351.969 114.758 350.713 114.982 350.409 115.971C350.162 116.775 350.481 116.839 354.181 116.386L357.443 116.034L364.046 118.164L370.649 120.294L372.001 121.962C372.944 123.199 373.979 124.024 375.767 125.048C383.792 129.611 388.55 133.002 390.363 135.488C391.509 137.058 394.461 139.149 395.244 138.916C396.019 138.714 396.479 139.533 397.056 142.18C397.468 143.931 398.735 145.437 400.666 146.436C401.662 146.945 404.56 147.227 404.684 146.825C404.731 146.67 404.359 146.116 403.884 145.564C403.409 145.012 403.099 144.477 403.24 144.351C403.561 144.077 401.079 139.795 399.872 138.646C399.273 138.056 397.635 136.876 396.197 135.926C392.031 133.259 390.638 132.053 387.463 128.37C383.603 123.936 377.924 118.468 371.614 113.179C368.861 110.879 361.375 104.45 354.976 98.8973C339.173 85.21 338.577 84.7222 334.92 83.1588C332.827 82.245 327.898 81.0692 326.268 81.076ZM251.402 72.3223C248.175 71.5678 245.796 71.1416 244.793 71.2057L243.237 71.303L244.255 71.8526C244.806 72.1572 249.24 74.0609 254.046 76.0788C261.119 78.9962 262.84 79.7957 262.726 80.1668C262.593 80.5997 261.518 80.2356 256.421 78.0606C255.582 77.7013 252.3 76.3544 249.11 75.0361C243.923 72.9349 243.303 72.7445 243.17 73.1774C243.066 73.5175 244.413 74.5406 248.402 77.1198C251.371 79.047 253.729 80.7529 253.691 80.8766C253.501 81.495 247.305 78.8132 244.802 77.0288C243.822 76.3555 242.51 75.1064 241.885 74.2714C239.079 70.6006 237.538 69.6536 232.221 68.5276C229.17 67.8611 220.443 66.9058 219.557 67.1412C218.68 67.3456 219.379 67.831 222.59 69.1897C228.474 71.6741 229.375 72.0524 231.22 72.89C232.204 73.3279 229.49 72.5615 225.149 71.1264C217.729 68.6775 217.316 68.5847 217.66 69.2318C218.028 70.0216 223.106 73.1385 228.151 75.7036C232.116 77.7 237.184 79.5276 239.879 79.9158C240.918 80.0658 243.24 80.6775 245.059 81.2701L248.315 82.372L237.457 81.0667C231.504 80.3545 226.63 79.771 226.652 79.8114C226.673 79.8518 228.959 80.6895 231.741 81.6795C236.964 83.5548 239.486 84.8373 235.997 83.8329C234.965 83.5497 233.892 83.2879 233.594 83.264C233.275 83.1998 231.17 82.6547 228.889 82.0216C224.616 80.8101 223.905 80.6935 223.791 81.0645C223.63 81.5902 227.144 83.1774 235.785 86.509C244.705 89.9262 247.163 91.0874 245.607 91.1847C245.228 91.2037 243.203 90.9536 241.103 90.6131C236.41 89.8821 235.047 89.9033 237.29 90.6601C240.568 91.8024 240.237 92.1068 236.598 91.2594C232.617 90.3073 231.202 90.2785 233.09 91.197C233.712 91.4897 238.449 93.1817 243.597 94.9666C248.756 96.7205 254.825 98.8219 257.089 99.6191L261.215 101.09L263.624 100.645C267.012 99.9942 269.302 100.156 274.078 101.387C277.534 102.279 278.238 102.529 278.124 102.9C278.019 103.24 276.601 103.109 272.287 102.359C269.127 101.828 266.463 101.45 266.382 101.493C266.017 101.685 266.549 102.052 269.894 103.858C274.601 106.42 275.027 106.687 274.623 106.901C274.461 106.986 272.494 106.213 270.296 105.199C268.107 104.155 265.838 103.153 265.249 102.972C264.32 102.686 264.239 102.729 264.477 103.276C264.64 103.631 266.627 105.663 268.902 107.749C271.209 109.845 273.005 111.615 272.924 111.658C272.357 111.958 267.588 108.496 264.628 105.658C262.266 103.409 260.907 102.315 260.132 102.077C258.924 101.706 242.027 99.0863 241.784 99.2147C241.703 99.2575 241.667 99.4835 241.734 99.7071C241.823 99.9711 243.46 100.711 246.283 101.68C253.222 104.15 255.727 105.157 255.632 105.466C255.585 105.62 252.634 104.849 248.729 103.65C244.98 102.498 241.874 101.679 241.827 101.834C241.779 101.988 242.094 102.288 242.54 102.493C243.007 102.738 245.449 104.063 248.005 105.457L252.649 108.001L259.592 109.356C265.874 110.541 267.361 110.998 266.602 111.374C266.48 111.438 264.209 111.214 261.545 110.836C256.237 110.119 252.901 109.94 252.778 110.342C252.73 110.496 253.56 110.887 254.604 111.241C255.679 111.605 256.816 111.988 257.147 112.124C257.479 112.26 259.164 112.845 260.89 113.409C263.474 114.271 264.034 114.544 263.92 114.915C263.806 115.286 262.755 115.065 257.158 113.413L250.56 111.488L252.094 112.568C256.264 115.44 265.571 119.145 270.075 119.717C272.131 119.976 272.379 120.052 272.952 120.838L273.568 121.703L278.652 120.829C281.439 120.365 283.745 119.923 283.774 119.831C283.802 119.738 283.106 118.915 282.233 118.004C279.728 115.339 279.547 112.948 281.774 111.771C283.06 111.117 284.27 111.151 290.846 112.156C293.234 112.551 295.259 112.801 295.371 112.768C295.452 112.725 294.371 111.276 292.966 109.558C291.034 107.239 290.382 106.159 290.224 105.129C289.998 103.875 290.036 103.751 290.72 103.183C291.755 102.351 293.032 102.168 295.861 102.563C297.198 102.737 298.523 102.839 298.778 102.782C299.452 102.685 296.37 99.4708 293.814 97.6364C291.706 96.1089 291.251 95.9352 285.497 94.1335C280.012 92.4485 278.58 92.1438 278.923 92.7909C278.988 92.9122 280.927 94.2185 283.258 95.6794C289.558 99.679 289.263 100.198 282.788 96.5499C281.281 95.7147 279.455 94.8153 278.711 94.5868L277.347 94.1679L278.061 95.267C278.455 95.8618 280.809 98.2432 283.316 100.57C285.823 102.897 287.662 104.748 287.414 104.672C286.403 104.429 282.576 101.764 280.532 99.9178C278.016 97.6219 275.439 94.5292 275.379 93.7323C275.277 92.0767 276.568 91.1873 278.989 91.2543C280.528 91.3211 287.836 93.3632 290.849 94.5935L292.506 95.2717L293.152 93.169C293.76 91.19 293.879 91.0235 294.956 90.6098C295.575 90.3601 296.039 90.0628 295.975 89.9415C295.941 89.8297 295.302 89.2611 294.579 88.633C293.365 87.6171 289.809 85.949 283.451 83.3528C282.364 82.9174 280.955 82.3153 280.292 82.044C272.056 78.4984 259.518 74.2742 251.402 72.3223ZM312.444 93.5122C312.182 93.7025 311.999 94.1877 312.028 94.535C312.074 95.1582 312.114 95.1368 312.881 94.6279C313.676 94.0262 313.899 93.0795 313.244 93.1151C313.039 93.1198 312.684 93.2815 312.444 93.5122ZM312.551 96.2525C311.355 96.3927 311.237 96.9992 312.217 98.1126C313.071 99.0857 314.137 99.4807 314.494 98.9812C314.741 98.6173 314.153 96.3384 313.781 96.2242C313.595 96.1671 313.052 96.1694 312.551 96.2525ZM296.017 92.1204C295.315 92.3106 295.293 92.2702 298.28 95.3535C299.668 96.7952 300.763 97.9776 300.67 97.9491C300.577 97.9205 299.504 97.2186 298.305 96.3763C297.074 95.5246 296.013 94.894 295.932 94.9368C295.851 94.9796 296.56 96.3142 297.482 97.9509C299.494 101.446 302.015 103.946 305.002 105.371C307.72 106.68 311.733 109.402 311.6 109.835C311.486 110.206 310.669 109.887 305.574 107.374C302.088 105.694 295.119 103.655 293.711 103.933C292.66 104.151 292.734 104.242 297.632 107.506C300.384 109.367 301.607 110.352 301.512 110.661C301.436 110.908 301.212 110.975 301.014 110.847C299.645 109.783 292.755 105.94 292.512 106.069C291.509 106.573 297.038 111.757 304.283 117.096C310.171 121.443 310.819 121.981 310.875 122.573C310.892 122.849 309.79 122.24 307.923 120.922C300.624 115.87 297.21 114.179 292.381 113.338C288.139 112.576 283.869 112.347 283.04 112.837C282.414 113.22 282.395 113.282 283.291 113.896C283.792 114.253 286.1 115.571 288.418 116.858C290.704 118.136 292.628 119.268 292.702 119.359C293.067 120.046 291.661 119.546 287.365 117.414C284.688 116.084 282.397 115.042 282.285 115.075C281.191 115.653 286.906 120.454 294.173 125.056C295.985 126.222 297.416 127.304 297.369 127.459C297.245 127.861 295.441 127.002 291.695 124.734C286.795 121.808 283.673 121.153 277.919 121.89C275.548 122.21 274.362 122.76 274.868 123.321C274.963 123.452 277.48 124.09 280.438 124.728C283.396 125.366 285.91 125.901 286.034 125.94C286.189 125.987 286.225 126.201 286.159 126.418C286.064 126.727 284.512 126.589 280.301 125.836C277.172 125.315 274.436 124.948 274.243 125.024C273.798 125.26 274.831 126.423 276.648 127.793C277.869 128.676 284.787 131.986 286.677 132.567C286.925 132.643 287.355 133.012 287.619 133.364C288.013 133.959 287.601 133.866 282.981 132.345C278.827 130.967 277.542 130.403 275.946 129.304C274.861 128.531 273.743 127.646 273.447 127.284C272.972 126.732 271.163 126.108 263.243 123.743C257.553 122.062 253.539 120.999 253.43 121.134C253.194 121.569 256.244 123.454 261.787 126.273C282.516 136.838 293.929 144.947 302.921 155.526C304.61 157.534 306.044 159.159 306.137 159.188C306.199 159.207 306.081 158.155 305.853 156.8C305.232 153.191 305.32 150.037 306.15 146.671C306.784 144.057 307.114 143.312 308.684 140.851C310.806 137.476 313.45 134.058 315.94 131.472C316.93 130.457 317.787 129.434 317.854 129.218C317.92 129.001 317.582 124.363 317.121 118.908C316.171 108.092 315.525 105.119 313.484 102.157C311.05 98.6001 308.713 96.9346 302.778 94.4003C297.733 92.2753 296.72 91.9302 296.017 92.1204ZM342.185 110.839C341.802 111.093 341.85 111.379 342.435 112.235C343.167 113.272 343.26 113.301 344.053 113.037L344.897 112.721L343.99 111.698C342.883 110.444 342.821 110.425 342.185 110.839ZM346.356 113.711C346.327 113.803 346.781 114.315 347.367 114.834C348.247 115.612 348.517 115.728 349.024 115.512C349.572 115.274 349.579 115.141 349.073 114.139C348.502 113.016 348.471 113.007 347.442 113.266C346.892 113.401 346.394 113.587 346.356 113.711ZM471.601 153.305C466.476 154.201 462.308 158.166 458.775 165.473C457.017 169.095 453.314 180.377 452.686 184.076C451.13 193.005 450.945 201.003 452.025 211.284C452.437 215.133 455.218 234.667 456.85 245.253C458.915 258.51 458.987 261.916 457.353 267.235C455.261 273.935 452.629 276.984 442.973 283.798C436.987 288.05 434.535 290.071 433.023 292.01C432.476 292.688 432.488 292.759 433.1 292.643C433.722 292.495 433.734 292.567 433.154 293.573C432.357 294.952 431.939 296.313 432.28 296.418C432.404 296.456 433.208 295.823 434.039 294.995L435.541 293.528L435.24 294.62C434.413 297.31 432.682 300.737 431.903 301.175C430.741 301.867 429.684 304.757 430.52 305.014C431.078 305.185 431.247 304.967 432.144 303.042C432.562 302.122 432.931 301.694 433.21 301.779C433.953 302.008 433.959 303.093 433.243 303.989C432.127 305.304 431.397 306.908 431.56 307.702C431.641 308.099 432.047 308.765 432.488 309.206C433.664 310.345 434.567 309.946 436.273 307.593C438.862 304.023 442.193 301.46 449.585 297.267C455.208 294.088 458.622 291.583 461.652 288.453C469.543 280.319 473.451 268.593 473.119 254.109C472.847 243.738 471.071 233.954 466.333 217.033C462.473 203.326 461.09 192.377 461.834 182.115C462.311 175.155 464.884 167.113 467.815 163.31C469.843 160.684 473.828 159.303 476.019 160.449C477.223 161.056 477.042 161.204 474.552 161.691C471.481 162.304 469.565 163.576 468.244 165.777C467.2 167.52 468.564 168.819 471.801 169.103C476.948 169.567 480.815 167.134 481.697 162.938C482.241 160.398 481.621 158.11 479.851 156.145C479.123 155.312 478.16 154.474 477.724 154.239C476.167 153.456 473.316 153.02 471.601 153.305ZM361.548 120.002C360.383 120.152 358.296 120.763 356.927 121.358C355.557 121.952 354.116 122.558 353.668 122.691C352.956 122.913 352.956 122.913 353.392 122.268C353.649 121.873 355.232 120.803 356.982 119.852L360.078 118.163L358.317 117.825C355.97 117.409 352.477 117.96 350.741 119.085C348.812 120.286 345.075 124.281 344.886 125.34C344.748 126.008 344.941 126.372 345.702 126.877C347.319 128.016 346.704 128.471 344.283 127.964C343.077 127.695 341.743 127.623 341.183 127.789C340.287 128.056 338.735 129.576 336.255 132.57C335.758 133.195 335.727 133.186 335.701 131.723C335.707 130.27 335.633 130.179 334.453 129.715C331.876 128.72 328.165 129.543 324.817 131.831C322.912 133.174 322.557 133.776 323.539 134.112C323.942 134.235 324.493 134.54 324.765 134.759C325.173 135.087 324.46 135.308 321.468 135.776C315.667 136.668 311.918 138.934 309.354 143.087C307.432 146.253 306.46 150.962 307.032 154.285L307.279 155.579L308.263 153.039C309.872 148.796 314.791 142.388 317.894 140.567C319.975 139.311 323.022 138.995 326.095 139.702L328.538 140.25L331.798 138.578C334.856 137.013 336.233 136.726 335.939 137.684C335.863 137.932 335.308 138.303 334.707 138.49C333.193 139.006 331.133 140.742 329.334 143.066C328.489 144.16 327.732 145.078 327.642 145.152C327.309 145.354 327.167 144.16 327.423 143.325C327.775 142.181 327.209 141.263 326.12 141.165C324.466 141.029 320.954 141.642 319.463 142.301C317.77 143.067 316.059 144.774 313.186 148.494C309.957 152.714 308.975 154.476 308.864 156.27C308.754 158.063 309.799 161.836 310.481 162.045C310.791 162.141 311.298 161.484 312.171 159.857C313.396 157.526 313.943 156.848 314.377 156.982C314.501 157.02 314.038 158.637 313.368 160.597C312.477 163.166 312.206 164.267 312.409 164.6C312.581 164.924 312.767 164.981 312.886 164.815C313.452 164.075 318.764 159.92 319.174 159.911C320.249 159.835 319.792 160.439 317.706 161.93C316.496 162.777 315.263 163.921 314.959 164.47C314.233 165.838 313.609 170.519 314.008 171.318C314.309 171.884 314.48 171.768 315.813 170.079C317.533 167.901 318.983 166.383 319.112 166.626C319.145 166.738 318.677 167.71 318.068 168.809C316.477 171.671 315.55 174.025 315.739 174.625C315.851 175.032 316.311 174.97 317.985 174.266C319.112 173.8 320.636 173.253 321.33 173.094C322.766 172.723 326.333 172.702 326.803 173.05C326.97 173.169 325.586 173.589 323.699 173.991C318.232 175.12 316.436 176.328 315.498 179.492C314.589 182.563 315.581 185.845 318.09 188.274C318.951 189.114 319.736 189.761 319.826 189.688C319.907 189.645 319.882 188.622 319.791 187.376C319.4 183.127 321.269 181.129 325.525 181.185C327.114 181.199 327.774 181.368 329.083 182.075C333.174 184.212 333.113 185.073 328.961 183.797C325.552 182.75 324.063 182.631 322.705 183.296C320.598 184.307 320.684 189.105 322.878 191.234L323.613 191.934L324.449 189.653C325.198 187.548 325.385 187.267 326.36 186.856C327.963 186.164 329.638 186.78 332.019 188.966C333.068 189.966 334.266 191.146 334.626 191.629C335.325 192.554 336.424 193.061 337.239 192.837C337.982 192.626 337.032 191.082 335.231 189.547C334.373 188.81 333.707 187.996 333.774 187.78C333.935 187.254 333.873 187.235 335.313 188.287C336.534 189.169 337.974 189.781 338.42 189.546C338.865 189.31 338.597 188.416 337.894 187.726C335.983 185.887 334.496 181.234 334.831 178.156C334.918 177.099 334.968 177.047 335.31 177.592C335.522 177.894 336.131 179.333 336.638 180.775C337.144 182.216 337.594 183.404 337.656 183.423C337.687 183.432 338.207 181.629 338.81 179.445C339.683 176.161 339.983 175.407 340.449 175.212C341.231 174.876 341.165 175.533 340 180.319C339.347 182.995 338.886 184.274 338.584 184.486C338.2 184.74 338.239 185.057 338.721 185.916L339.332 187.017L340.164 184.971C340.746 183.628 341.527 182.412 342.495 181.356C343.905 179.86 345.902 178.545 346.148 178.959C346.203 179.111 341.87 184.717 339.866 187.046C339.487 187.505 341.817 188.863 343.495 189.142C346.428 189.637 351.82 188.315 354.839 186.434C356.404 185.426 357.113 184.663 356.586 184.501C356.493 184.472 354.154 185.243 351.41 186.227C348.625 187.233 346.022 188.091 345.583 188.193C343.961 188.507 345.028 187.684 348.933 185.568C354.976 182.348 357.413 182.251 363.259 184.859C366.896 186.484 369.16 186.841 372.439 186.325C375.043 185.907 378.301 184.133 380.584 181.89L382.145 180.34L381.72 181.833C381.093 183.874 380.143 184.868 377.621 186.124C373.518 188.112 368.471 188.423 363.516 187.002L361.182 186.319L362.589 187.259C363.569 187.932 365.412 188.667 368.78 189.736C374.658 191.576 376.557 191.685 379.341 190.239C382.875 188.449 384.979 185.136 385.71 180.217C386.131 177.3 389.041 168.381 390.271 166.254C392.216 162.791 392.182 159.261 390.156 156.913C388.458 154.936 385.718 153.147 383.208 152.376C382.031 152.014 380.794 151.735 380.424 151.723C379.369 151.737 379.771 151.421 381.369 150.965C382.784 150.553 383.042 150.599 385.38 151.486C388.908 152.807 390.885 154.43 392.282 157.058C393.605 159.597 393.685 161.652 392.659 164.991C392.241 166.352 392.092 167.389 392.24 167.57C392.419 167.76 393.567 167.335 395.075 166.512C397.311 165.304 397.742 164.895 398.558 163.453C401.207 158.582 399.3 152.649 394.219 149.87C393.668 149.566 392.712 149.035 392.087 148.64C391.005 147.969 390.993 147.898 391.803 147.91C393.352 147.946 394.801 148.526 396.99 150.011L399.179 151.496L399.388 150.815C399.616 150.073 399.013 147.621 398.333 146.633C397.706 145.696 395.896 144.192 394.599 143.557C392.772 142.658 390.001 142.517 387.793 143.192C385.758 143.853 385.418 143.748 386.081 142.802C386.498 142.219 390.026 141.442 392.507 141.425C393.603 141.39 393.765 141.304 393.669 140.733C393.458 139.653 391.419 138.012 389.591 137.45C387.267 136.736 385.185 137.112 383.201 138.6C381.872 139.613 381.608 139.701 381.524 139.202C381.158 137.634 383.818 135.71 386.541 135.566C387.513 135.492 388.411 135.328 388.49 135.183C388.778 134.798 386.729 133.187 385.428 132.787C384.219 132.416 379.891 133.15 378.74 133.914C378.317 134.189 378.031 134.237 378.097 134.02C378.164 133.804 378.859 133.307 379.7 132.888C380.5 132.491 381.024 132.111 380.838 132.054C380.249 131.873 373.766 132.554 372.668 132.928C372.027 133.137 371.567 133.199 371.615 133.044C371.852 132.271 373.762 131.132 375.385 130.818C376.404 130.59 378.005 130.236 378.932 129.979L380.664 129.53L379.595 128.592C377.406 126.668 375.754 126.634 371.164 128.439L368.087 129.625L370.087 128.413C371.854 127.297 372.004 127.14 371.475 126.876C370.624 126.445 367.52 126.947 364.899 127.969C363.639 128.428 362.56 128.74 362.527 128.628C362.226 128.062 365.341 126.311 368.221 125.436C370.012 124.904 371.608 124.345 371.749 124.219C371.889 124.093 371.715 123.667 371.376 123.225C370.214 121.819 368.153 121.795 363.398 123.143C361.087 123.82 359.182 124.284 359.139 124.203C358.881 123.718 361.165 122.355 363.697 121.508C365.324 120.959 366.665 120.458 366.693 120.365C366.807 119.994 363.418 119.765 361.548 120.002ZM342.845 115.204C342.817 115.297 342.929 115.703 343.113 116.098C343.297 116.493 343.706 118.142 344.013 119.793C344.319 121.444 344.654 122.562 344.739 122.283C344.834 121.974 345.551 121.077 346.372 120.281C348.583 118.05 348.569 117.876 345.877 116.372C344.027 115.33 342.94 114.895 342.845 115.204ZM334.302 121.818C330.945 122.038 327.942 123.755 325.779 126.712C324.887 127.961 324.682 128.405 324.868 128.902C325.045 129.431 325.26 129.395 326.784 128.408C327.712 127.813 329.144 126.798 329.948 126.165C331.667 124.765 333.463 123.997 335.51 123.847C337.187 123.686 340.364 124.492 341.111 125.263C341.626 125.794 343.242 126.053 343.366 125.651C343.556 125.033 342.833 123.965 341.814 123.415C340.162 122.501 336.277 121.68 334.302 121.818ZM333.808 125.964C330.435 126.789 330.421 127.055 333.644 128.045L336.37 128.883L338.121 127.932C339.093 127.418 339.94 126.866 339.988 126.712C340.035 126.557 339.675 126.074 339.203 125.625C338.258 124.725 338.77 124.713 333.808 125.964ZM319.125 121.216C318.944 121.363 318.847 122.01 318.843 122.686C318.887 123.647 318.963 123.84 319.43 123.645C320.09 123.374 320.301 122.796 320.124 121.827C319.952 121.064 319.587 120.816 319.125 121.216ZM320.922 131.04C319.767 131.159 318.035 132.048 315.242 133.965C312.801 135.618 313.721 135.935 317.59 134.822C320.501 133.957 320.825 133.785 321.524 132.613C322.628 130.786 322.671 130.867 320.922 131.04ZM440.108 187.487C434.584 193.878 428.522 200.916 426.618 203.14C424.724 205.333 420.597 210.156 417.396 213.842C414.235 217.508 411.436 220.878 411.21 221.282C410.934 221.739 410.84 222.488 410.981 223.242C411.11 223.925 413.152 230.305 415.53 237.465C417.908 244.626 422.576 258.682 425.896 268.738C432.427 288.544 432.329 288.311 432.917 288.492C433.134 288.558 434.658 287.571 436.308 286.285C437.958 284.998 440.609 283.105 442.214 282.075C449.805 277.234 453.382 272.986 455.446 266.378C455.931 264.801 456.445 262.353 456.565 260.969C457.004 256.231 456.855 255.17 452.393 230.178C448.287 207.225 448.285 193.214 452.432 177.399C453.068 174.887 453.597 172.613 453.611 172.347C453.594 172.071 452.861 172.691 451.863 173.84C450.916 174.937 445.601 181.087 440.108 187.487ZM264.052 120.337C259.223 119.496 255.117 118.844 254.893 118.91C253.568 119.248 255.361 120.035 266.185 123.767C270.869 125.409 271.808 125.664 271.953 125.302C272.571 123.732 273.082 121.96 272.958 121.922C272.865 121.894 268.84 121.198 264.052 120.337ZM230.291 117.308C213.402 113.337 200.146 111.668 192.563 112.621C191.581 112.725 190.178 113.208 189.409 113.614L188.013 114.404L189.247 115.798L190.44 117.213L198.217 119.603C202.493 120.917 208.233 122.545 211.017 123.197C237.375 129.569 248.331 133.645 262.125 142.282C269.245 146.703 279.346 154.443 283.675 158.785C286.008 161.126 286.29 161.314 289.312 162.513C292.428 163.741 294.562 165.073 297.703 167.764C299.315 169.139 304.597 174.687 304.425 174.804C304.344 174.847 301.304 172.491 297.645 169.608C288.342 162.249 288.159 162.294 295.096 170.178C297.711 173.147 299.915 175.686 299.939 175.828C299.963 175.971 297.614 173.794 294.728 171.046C287.443 164.071 287.319 164.033 288.968 168.16C289.983 170.705 289.772 171.283 288.39 169.708C287.136 168.274 286.471 166.682 286.214 164.539C286.106 163.457 285.685 162.177 285.294 161.685C284.912 161.161 280.24 157.492 274.946 153.531C269.631 149.529 264.847 145.894 264.273 145.446C263.698 144.999 261.688 143.705 259.773 142.541C256.683 140.678 256.268 140.483 255.887 140.84C255.506 141.197 254.651 141.001 250.272 139.69C247.421 138.814 244.812 138.148 244.473 138.145C244.116 138.205 247.678 140.517 253.87 144.315C260.873 148.564 263.832 150.523 263.737 150.832C263.661 151.079 263.416 151.105 263.094 150.939C262.5 150.553 259.422 148.762 250.367 143.577C246.478 141.333 243.14 139.394 242.942 139.265C242.785 139.116 242.561 139.182 242.494 139.399C242.314 139.986 243.151 140.683 254.042 149.275C269.596 161.566 271.99 163.486 275.525 166.771C277.371 168.489 278.831 169.919 278.75 169.961C278.7 170.014 276.728 168.596 274.388 166.828C270.148 163.63 265.534 160.656 261.963 158.814C260.904 158.286 258.704 157.17 257.033 156.318C255.247 155.398 253.922 154.855 253.772 155.012C253.631 155.138 253.543 155.314 253.586 155.395C253.62 155.507 256.958 157.886 260.974 160.71C264.989 163.534 268.237 165.987 268.19 166.142C268.133 166.327 267.94 166.404 267.754 166.346C267.475 166.261 255.693 158.58 252.942 156.72L252.107 156.125L252.799 157.184C253.981 158.968 257.363 162.308 262.433 166.776C265.166 169.139 267.275 171.106 267.194 171.149C266.87 171.32 261.457 167.525 258.235 164.877C253.654 161.135 250.961 158.311 249.922 156.063C249.284 154.716 248.671 153.953 247.975 153.57C247.424 153.265 243.61 151.992 239.511 150.766L232.064 148.512L228.817 148.597C227.044 148.628 224.997 148.778 224.304 148.937C223.039 149.191 223.039 149.191 223.866 149.479C224.764 149.755 234.999 151.986 236.739 152.283C237.48 152.409 237.771 152.566 237.685 152.845C237.6 153.123 236.944 153.159 235.853 152.959C231.508 152.199 221.863 150.59 221.165 150.544C220.774 150.492 220.398 150.613 220.35 150.768C220.293 150.953 222.61 151.801 226.35 152.983C238.437 156.798 246.244 159.535 246.275 159.985C246.273 160.322 245.563 160.206 243.425 159.549C239.986 158.492 236.439 158.113 232.715 158.424C230.004 158.641 224.27 159.755 224.42 160.038C224.463 160.119 225.204 160.245 226.088 160.348C230.816 160.853 235.444 161.463 235.54 161.593C235.583 161.674 233.369 161.705 230.631 161.676C227.903 161.616 225.096 161.701 224.403 161.86L223.128 162.146L224.725 162.467C236.139 164.722 239.437 165.464 243.182 166.412C249.455 168.068 251.371 168.454 254.36 168.661C258.313 168.928 261.452 169.419 262.275 169.942L262.992 170.366L262.123 170.437C261.672 170.468 259.701 170.37 257.771 170.251C252.955 169.922 248.313 170.018 245.066 170.544C242.391 170.974 239.511 171.849 239.652 172.163C239.695 172.244 242.354 172.418 245.557 172.589C252.884 172.912 257.284 173.383 260.52 174.107C262.706 174.609 261.548 174.626 251.837 174.113C245.689 173.815 240.618 173.543 240.547 173.554C240.516 173.545 240.418 173.752 240.333 174.03C240.209 174.432 240.438 174.57 241.384 174.692C244.43 175.154 273.447 181.26 273.555 181.462C273.65 181.593 273.562 181.769 273.431 181.864C273.157 181.983 262.869 180.48 259.254 179.775C258.1 179.556 256.325 179.485 255.334 179.62C253.392 179.87 247.766 182.507 248.31 182.944C248.477 183.063 250.524 182.914 252.844 182.645C258.589 181.94 260.285 182.157 255.518 182.993C253.252 183.414 251.685 183.88 251.519 184.201C251.371 184.46 251.376 184.665 251.559 184.62C251.998 184.517 274.072 184.193 274.351 184.278C274.475 184.316 272.951 184.863 270.966 185.472C266.366 186.868 264.187 187.89 260.21 190.458C255.215 193.695 255.453 193.802 264.101 191.924C267.669 191.126 271.374 190.436 272.368 190.403C274.569 190.301 274.264 190.411 269.526 191.595C261.822 193.492 256.865 194.947 257.146 195.134C257.313 195.253 262.952 194.448 269.64 193.322C276.349 192.235 281.793 191.404 281.745 191.558C281.603 192.022 280.069 193.04 273.604 196.976C267.824 200.446 265.265 202.265 265.501 202.71C265.544 202.791 268.041 202.17 271.116 201.321C275.883 200.045 280.533 199.037 281.029 199.189C281.122 199.218 277.563 200.426 273.128 201.838C268.683 203.281 264.993 204.584 264.883 204.72C264.477 205.271 267.688 204.972 275.143 203.777C279.463 203.073 283.77 202.299 284.706 202.011C286.752 201.421 288.321 200.178 289.928 197.93C291.443 195.756 291.784 195.421 294.946 193.076C297.25 191.313 298.215 190.933 297.93 191.861C297.883 192.015 296.397 193.319 294.659 194.781C291.754 197.171 290.372 198.912 291.456 198.806C291.701 198.779 292.975 198.054 294.266 197.165C295.557 196.275 296.647 195.595 296.659 195.666C296.712 195.716 295.962 196.501 295.031 197.434C293.339 199.079 292.727 200.076 293.316 200.257C293.471 200.304 295.227 199.998 297.154 199.575C299.112 199.161 300.806 198.836 300.93 198.874C302.387 199.321 296.896 201.628 294.254 201.729C293.403 201.739 292.283 201.632 291.725 201.46C291.168 201.289 290.324 201.165 289.874 201.196C289.321 201.229 285.58 203.802 279.718 208.093C274.622 211.874 270.294 215.146 270.115 215.396C269.677 215.938 269.718 215.917 276.559 213.518C279.72 212.391 282.781 211.369 283.372 211.212L284.432 210.962L283.419 211.497C282.853 211.797 279.618 213.273 276.2 214.795C272.792 216.286 270.046 217.608 270.079 217.72C270.282 218.053 273.198 217.392 277.431 216.087C288.899 212.538 294.644 210.614 295.37 210.127C295.804 209.82 296.77 208.661 297.512 207.57C298.264 206.447 299.388 204.999 300.028 204.349C301.218 203.124 304.14 201.45 303.941 202.1C303.874 202.316 302.577 203.779 301.077 205.349C299.578 206.918 298.443 208.295 298.569 208.436C298.664 208.567 300.403 207.544 302.398 206.127C304.394 204.709 306.058 203.596 306.101 203.677C306.123 203.718 304.982 204.89 303.518 206.234C300.009 209.487 300.019 209.456 301.26 209.499C301.804 209.497 303.171 209.241 304.26 208.898C306.396 208.235 307.126 208.29 306.917 208.97C306.765 209.465 299.151 211.288 296.918 211.38C295.269 211.449 286.051 214.742 283.898 216.01C281.029 217.734 275.538 224.236 276.654 224.579C276.809 224.627 278.783 223.609 281.007 222.329C283.231 221.05 285.651 219.797 286.382 219.514L287.714 219.043L285.978 220.168C284.999 220.815 282.466 222.439 280.337 223.849C278.217 225.229 276.443 226.477 276.405 226.601C276.035 227.807 283.669 225.144 294.185 220.388C298.87 218.274 299.342 218.284 296.227 220.474C294.624 221.606 293.939 222.512 293.407 224.244L292.992 225.707L294.182 224.922C294.859 224.487 296.504 222.996 297.865 221.654C300.707 218.805 301.603 218.099 301.787 218.494C301.882 218.624 300.409 220.439 298.552 222.508C296.696 224.577 295.12 226.395 295.063 226.58C294.759 227.57 296.688 226.369 302.748 221.767C311.103 215.434 312.124 214.868 308.999 218.307C306.214 221.411 305.101 223.268 304.47 225.985C303.526 230.161 303.859 229.959 309.007 223.25C311.61 219.853 313.769 217.132 313.811 217.213C313.833 217.254 312.189 220.065 310.108 223.419C308.057 226.782 306.323 229.667 306.285 229.791C306.161 230.193 308.812 228.3 309.811 227.253C310.352 226.709 311.906 224.851 313.298 223.079C315.694 220.025 316.806 218.946 317.085 219.471C317.181 219.602 316.334 221.034 315.287 222.675C312.953 226.188 312.906 226.343 313.115 228.641C313.388 231.398 313.419 231.407 316.415 226.067C318.468 222.366 319.681 220.404 319.758 220.597C319.801 220.678 319.095 222.424 318.222 224.491C316.273 229.069 315.511 231.441 315.914 231.564C316.409 231.717 317.085 230.842 319.552 226.896C322.267 222.586 323.021 221.565 323.393 221.68C323.827 221.813 323.325 223.114 321.75 225.811C319.476 229.681 317.801 232.043 316.854 232.699C315.734 233.472 314.01 233.788 313.342 233.312C312.841 232.956 311.661 230.393 311.372 229.019C311.254 228.407 311.021 228.505 309.402 229.801C306.968 231.761 305.385 232.391 304.052 231.981C303.184 231.715 302.932 231.434 302.683 230.478C302.513 229.816 302.476 228.722 302.602 227.982C302.718 227.274 302.898 226.246 302.988 225.732C303.087 225.187 303.175 224.571 303.241 224.355C303.286 224.098 302.527 224.474 301.529 225.182C296.538 228.624 293.282 229.62 291.984 228.104C291.414 227.422 291.316 225.531 291.772 224.046C292 223.304 291.957 223.223 291.345 223.34C290.957 223.39 288.134 224.519 285.05 225.839C279.002 228.414 277.373 228.861 275.762 228.366C274.336 227.928 273.866 227.141 274.117 225.661C274.302 224.398 275.153 223.171 278.844 218.552L280.008 217.082L278.643 217.441C277.869 217.643 275.842 218.171 274.141 218.629C269.557 219.861 267.963 219.642 267.599 217.736C267.247 215.902 269.363 213.541 275.834 208.592C278.27 206.734 280.463 205.005 280.734 204.784C281.015 204.532 278.173 204.843 273.894 205.525C267.9 206.492 266.232 206.623 264.768 206.309C263.305 205.994 262.921 205.809 262.732 205.209C262.381 204.255 262.987 202.614 264.077 201.494C265.317 200.217 268.741 197.682 271.037 196.39C272.028 195.815 272.764 195.296 272.64 195.258C272.485 195.211 269.704 195.541 266.423 195.954L260.446 196.757L255.622 201.198C249.928 206.487 247.13 208.199 243.925 208.365C241.888 208.484 240.189 208.165 240.043 207.646C240.019 207.504 240.8 207.168 241.81 206.971C243.299 206.65 243.583 206.5 243.256 206.129C243.015 205.92 240.75 204.682 238.187 203.421C229.304 199 221.968 197.051 210.679 196.155C208.296 195.964 204.998 195.661 203.394 195.473C198.654 194.897 194.632 195.184 190.601 196.382C189.768 196.668 188.403 197.027 187.628 197.229L186.192 197.599L187.378 196.61C189.57 194.881 189.432 194.669 184.722 192.782C165.477 185.11 162.536 184.308 150.256 183.547C144.835 183.202 139.535 182.792 139.132 182.668C139.07 182.649 139.056 182.475 139.103 182.321C139.16 182.135 140.087 181.878 141.159 181.7C142.231 181.522 143.148 181.296 143.177 181.203C143.205 181.11 142.518 180.256 141.704 179.262C140.175 177.506 139.719 176.452 138.712 172.556C137.714 168.628 135.156 164.594 131.535 161.146C130.674 160.306 128.07 158.187 125.761 156.428C120.508 152.446 113.711 146.973 111.989 145.294C111.254 144.594 109.797 142.827 108.766 141.326C106.79 138.485 106.391 138.126 105.944 138.699C105.756 138.98 105.632 138.942 105.355 138.518C105.143 138.216 105.149 137.203 105.417 135.999C106.313 131.537 105.662 128.799 103.06 126.341C100.813 124.162 98.7201 123.248 90.0938 120.53L82.9763 118.31L85.7642 118.286C87.3321 118.26 88.6211 118.149 88.6591 118.025C88.7636 117.685 86.6617 115.144 85.2474 113.897C83.2989 112.182 79.6759 111.171 76.9169 111.541C74.2199 111.931 71.8192 113.122 69.3934 115.389C67.7889 116.859 63.9175 119.967 62.6959 120.742C62.534 120.828 62.2766 120.783 62.1191 120.633C61.8233 120.271 63.5204 118.39 66.7889 115.367C67.8126 114.463 68.6909 113.481 68.7764 113.203C69.0044 112.461 68.4632 112.125 67.465 112.394C66.7837 112.624 66.5433 112.855 66.5273 113.459C66.4922 114.125 66.2398 114.285 64.9842 114.508C64.198 114.639 63.3284 114.71 63.0805 114.634C62.4607 114.443 62.2637 115.195 62.7005 115.871C63.0298 116.344 62.8488 116.491 61.5148 116.86C60.0903 117.302 60.0093 117.345 60.5626 117.752C61.5426 118.425 60.8853 118.799 58.8361 118.846C56.1507 118.867 54.967 119.518 54.4446 121.219C53.9886 122.703 54.5572 124.164 55.9785 125.277C56.3863 125.606 59.9337 127.305 63.8005 129.068C74.1969 133.751 78.8533 136.366 80.8643 138.54C81.4964 139.242 82.7922 141.095 83.7232 142.701C84.6636 144.276 86.8449 147.552 88.5939 149.917C92.9226 155.917 94.3891 159.311 96.149 167.601C97.2504 172.847 97.3723 173.222 97.9611 173.403C98.5188 173.575 99.1293 171.698 98.7426 170.97C98.5277 170.566 98.5682 170.544 98.902 170.782C99.1739 171.001 99.8122 170.689 100.879 169.867C102.548 168.518 102.829 168.706 101.763 170.409C100.203 172.84 100.469 174.512 102.483 175.131C103.444 175.426 103.539 175.557 103.529 176.806C103.518 178.495 103.989 179.282 105.643 180.298C106.819 180.998 107.096 181.421 107.791 183.462C108.523 185.717 108.535 185.789 107.822 185.57C107.419 185.446 106.988 185.415 106.835 185.47C106.511 185.641 107.149 189.525 107.785 191.21C108.017 191.89 108.432 192.525 108.68 192.601C108.959 192.687 109.218 192.394 109.427 191.714C110.101 189.519 110.486 190.144 110.723 194.007C111.368 202.835 112.389 206.025 115.705 209.142C117.393 210.71 120.786 212.801 121.272 212.544C121.353 212.501 121.095 211.576 120.657 210.46C119.695 207.965 119.718 207.227 120.888 205.184L121.823 203.576L122.037 205.199C122.37 207.535 122.697 208.346 123.806 209.262C125.459 210.616 126.56 210.785 128.137 209.848C128.915 209.41 129.554 209.099 129.587 209.211C129.63 209.291 129.645 209.905 129.619 210.54L129.597 211.718L131.768 212.486C133.816 213.217 134.021 213.212 135.309 212.661L136.658 212.026L136.329 214.53C136.147 215.896 136.06 217.392 136.204 217.808C136.471 218.703 137.48 219.723 138.379 219.999C139.185 220.247 140.28 219.331 140.66 218.094C140.821 217.569 141.116 217.05 141.331 217.015C141.555 216.948 141.584 217.295 141.413 217.852C140.985 219.243 141.802 220.78 143.251 221.361C143.892 221.592 144.524 221.853 144.648 221.892C145.311 222.163 144.503 222.693 143.295 222.762C141.935 222.885 141.935 222.885 142.134 223.894C142.395 225.362 142.941 225.902 148.598 230.448C153.491 234.388 154.45 235.021 154.602 234.527C154.742 233.96 154.305 233.285 153.072 232.331L151.756 231.317L152.883 231.291C153.877 231.258 154.017 231.132 154.059 230.333C154.118 229.809 154.303 228.546 154.554 227.507C155.014 225.347 154.993 225.307 155.577 229.919C155.908 232.593 156.314 233.259 158.183 234.239C159.471 234.906 159.975 234.587 159.738 233.262C159.434 231.713 158.742 230.655 157.791 230.329L156.849 229.972L157.817 230.134C159.02 230.3 159.711 230.039 159.939 229.297C160.176 228.524 160.849 228.764 161.097 229.72C161.344 230.574 161.592 230.65 164.623 230.499C166.834 230.366 167.177 230.133 167.442 228.387C167.747 226.619 168.481 226.439 168.421 228.18C168.376 228.877 168.53 229.702 168.711 229.995C169.148 230.671 170.284 230.614 171.158 229.867C171.56 229.551 171.975 229.306 172.099 229.344C172.223 229.382 172.412 230.421 172.566 231.687C172.689 232.943 172.909 233.992 173.033 234.03C173.157 234.068 173.174 234.344 173.119 234.632C173.055 234.95 173.011 235.647 173.076 236.209L173.141 237.21L174.198 236.418C175.739 235.267 175.919 234.68 176.181 229.853C176.361 226.288 176.434 225.938 176.837 226.062C176.992 226.109 177.172 227.62 177.196 229.421C177.245 231.466 177.449 232.68 177.716 232.694C178.312 232.741 181.581 230.599 181.743 230.073C181.828 229.795 181.816 229.283 181.735 228.886C181.605 228.203 181.543 228.184 180.657 228.42C180.169 228.574 179.709 228.636 179.666 228.555C179.58 228.393 182.239 223.931 182.523 223.782C182.604 223.739 183.293 223.815 184.024 223.972C185.168 224.222 185.647 224.098 187.021 223.268C189.212 221.877 189.76 222.079 188.883 223.942C188.348 225.131 188.296 225.521 188.623 226.332C188.993 227.225 189.055 227.244 190.035 227.037C190.973 226.851 191.083 226.716 191.71 224.675C192.795 221.252 193.107 220.57 193.54 220.703C193.788 220.779 193.832 221.3 193.606 222.144C192.681 225.819 192.915 226.602 194.713 225.936C195.404 225.675 195.433 225.582 195.084 225.17C194.736 224.759 194.814 224.614 195.674 223.693C196.523 222.804 196.716 222.728 197.465 223.161C197.932 223.406 198.9 223.568 199.708 223.477C201.518 223.323 203.006 223.78 202.816 224.398C202.74 224.646 202.859 224.919 203.045 224.977C203.262 225.043 206.272 225.291 209.732 225.508C216.149 225.923 218.28 226.273 216.915 226.632C216.539 226.753 215.817 227.005 215.288 227.181L214.333 227.531L215.201 228.237C215.652 228.647 215.929 229.07 215.798 229.165C215.657 229.291 214.165 229.07 212.454 228.679C206.114 227.239 200.934 227.103 194.842 228.277C185.474 230.069 178.554 233.831 174.88 239.166C173.712 240.871 172.288 241.754 169.324 242.569C165.832 243.56 162.129 245.57 159.612 247.91C157.296 250.041 155.62 251.083 153.785 251.534C150.881 252.266 144.989 254.889 139.557 257.89C134.903 260.454 133.91 260.927 134.252 260.254C134.878 258.991 134.394 258.47 131.268 257.273C129.726 256.664 126.524 255.274 124.15 254.172C119.287 251.9 110.67 249.151 105.789 248.261C104.214 247.98 100.069 247.451 96.6376 247.141C83.4948 245.878 79.9974 244.127 76.0607 236.962C73.5063 232.251 71.6482 230.462 68.3231 229.475C65.6582 228.656 63.8069 228.832 61.2443 230.109C58.5697 231.419 57.0276 233.348 53.1648 240.181C50.1558 245.45 48.4047 248.059 47.533 248.468C46.8232 248.791 46.7923 248.782 47.0773 247.854C47.2388 247.328 47.2668 246.796 47.1404 246.655C46.7921 246.244 40.7317 247.867 38.6049 248.94C36.3162 250.098 34.5737 251.796 33.2584 254.201C31.7957 256.865 31.8456 256.812 31.3754 256.025C30.6593 254.824 29.5847 254.899 28.1231 256.346C26.2902 258.117 25.8841 259.549 26.8481 260.827C27.2514 261.391 27.6402 261.781 27.6902 261.728C27.7307 261.707 28.2425 261.255 28.8044 260.751C29.3567 260.278 30.5808 259.605 31.5265 259.286C33.2654 258.704 33.5562 258.861 32.4491 259.705C32.1277 259.978 31.4469 260.649 30.9995 261.222C30.1617 262.183 30.1832 262.224 30.8029 262.414C31.1747 262.528 32.2324 262.176 33.254 261.61C34.964 260.681 35.0735 260.545 35.2485 259.313L35.4116 258.009L36.3677 258.54C36.9184 258.845 38.1369 259.625 39.1169 260.298L40.8576 261.476L39.51 262.551C38.7552 263.131 37.979 263.671 37.7955 263.716C37.5811 263.752 37.3907 263.93 37.3337 264.116C37.1722 264.642 38.0538 264.642 39.035 264.097C40.7544 263.136 45.2044 261.898 50.6958 260.911C53.6357 260.393 58.0906 259.359 60.5538 258.627C64.4724 257.462 64.8297 257.403 63.4437 258.161C61.9267 259.015 61.8862 259.036 62.5609 259.379C62.9757 259.574 63.6095 259.498 64.1263 259.251C64.5812 258.985 65.6343 258.868 66.4159 258.973C67.1976 259.078 68.2747 259.104 68.775 259.021C69.6947 258.897 69.6947 258.897 69.0448 259.578C68.664 259.934 68.3355 260.341 68.2975 260.465C68.1455 260.959 69.6874 261.129 71.2169 260.786C72.0626 260.572 72.8488 260.442 72.9107 260.461C73.2206 260.556 72.7447 261.222 71.94 261.854L71.0542 262.53L71.7099 262.934C72.0533 263.141 72.7994 263.472 73.3262 263.634C73.884 263.805 74.3108 264.072 74.2633 264.226C74.1113 264.721 72.4133 265.722 71.9485 265.58C71.1119 265.323 71.3437 266.003 72.4312 266.878C74.9615 268.908 76.7108 269.175 80.167 267.969C80.8483 267.738 82.0729 267.506 82.8925 267.487L84.3985 267.442L83.911 268.476L83.3831 269.532L85.3303 269.928C86.4219 270.128 87.6349 270.263 88.0017 270.173C88.645 270.066 88.688 270.147 88.398 270.87C88.1865 271.448 88.225 271.764 88.5993 271.981C89.4099 272.433 90.6704 272.414 91.5612 271.943C92.047 271.687 92.3234 271.67 92.2569 271.886C92.1904 272.103 90.9998 272.888 89.6232 273.615C88.0847 274.429 87.199 275.104 87.3064 275.306C87.4448 275.518 88.9686 276.629 90.7188 277.776C94.3646 280.148 95.6136 280.498 98.2746 279.894C100.13 279.483 102.206 279.241 102.149 279.426C102.12 279.519 100.891 279.987 99.4071 280.513L96.6821 281.435L97.2238 282.211C98.0638 283.45 99.4627 283.643 100.248 282.632C100.476 282.33 100.936 282.269 101.525 282.449C102.021 282.602 102.803 282.707 103.253 282.676C103.703 282.645 104.921 282.545 105.964 282.46L107.878 282.303L107.03 282.855C104.737 284.248 104.737 284.248 106.591 284.615C107.868 284.872 108.564 284.815 109.445 284.375C110.569 283.807 110.641 283.795 110.441 284.444C110.337 284.784 110.058 285.139 109.875 285.184C109.253 285.331 109.126 286.409 109.665 287.082C110.09 287.686 109.956 287.679 107.935 287.194C105.697 286.641 104.98 286.658 105.345 287.345C105.775 288.154 114.321 292.235 118.331 293.535C122.061 294.748 122.497 294.984 124.651 296.695C126.773 298.396 127.25 298.61 130.38 299.571C134.48 300.797 136.622 300.778 142.122 299.321C146.951 298.063 147.382 298.094 145.425 299.388C143.639 300.565 143.72 300.963 145.806 301.129C147.49 301.275 148.517 300.913 152.406 298.961L155.748 297.247L154.439 298.638L153.089 300.051L154.178 300.148C155.143 300.208 158.73 298.907 160.214 297.942C161.062 297.39 161.407 297.699 160.643 298.311C159.617 299.112 159.662 299.295 161.026 299.714C161.708 299.924 162.227 300.219 162.189 300.342C162.142 300.497 160.929 300.801 159.5 301.039C156.967 301.445 154.926 302.239 155.732 302.487C156.475 302.715 161.227 302.483 163.442 302.115C169.844 301.036 176.167 297.564 180.894 292.553C181.953 291.423 182.649 290.926 182.899 291.104C183.443 291.542 183.264 291.792 180.277 294.563C176.046 298.508 175.277 299.355 175.773 299.507C176.734 299.802 179.887 297.928 182.506 295.586C185.905 292.468 190.929 288.258 191.115 288.315C191.269 288.363 187.597 292.48 184.807 295.379C183.998 296.247 183.132 297.301 182.865 297.727L182.382 298.526L183.893 298.245C187.118 297.68 191.469 294.888 195.209 290.994C196.058 290.105 196.913 289.42 197.068 289.468C197.564 289.62 197.326 289.953 195.1 292.45C191.856 296.056 191.866 296.025 192.838 295.951C198.161 295.624 208.302 292.75 216.571 289.233C224.841 285.716 225.613 285.412 225.87 285.457C226.025 285.504 223.691 286.919 220.657 288.627C217.664 290.313 215.137 291.804 215.037 291.909C214.928 292.044 215.057 292.287 215.276 292.456C215.851 292.903 226.434 293.447 227.224 293.081C227.62 292.898 228.058 292.356 228.2 291.892C228.39 291.273 228.812 290.895 229.645 290.61C230.296 290.37 231.498 289.656 232.365 289.043C234.055 287.735 234.353 287.758 233.504 289.088C232.762 290.18 233.136 290.396 235.147 290.033C236.903 289.726 238.267 288.927 240.624 286.775C241.707 285.788 242.431 285.198 242.283 285.457C240.53 287.964 240.344 288.347 240.678 288.585C241.377 289.07 240.608 289.917 238.269 291.127C234.868 292.925 234.779 293.879 238.065 293.67C241.832 293.44 247.231 291.207 249.057 289.129C250.504 287.509 250.49 287.335 249.009 286.745L247.736 286.252L249.402 286.02C251.384 285.749 252.37 284.969 254.53 281.91C256.293 279.372 257.067 278.73 256.056 280.585C255.067 282.481 254.594 284.129 255.028 284.263C255.741 284.482 256.246 284.163 258.484 282.177C259.698 281.095 260.733 280.263 260.745 280.334C260.819 280.424 258.334 284.872 256.954 287.155C256.59 287.788 256.59 287.788 257.56 287.612C259.101 287.341 260.463 286.44 260.627 285.577C260.71 285.196 261.862 283.655 263.19 282.202C264.518 280.748 266.105 279.003 266.703 278.272C267.291 277.573 267.893 277.048 268.017 277.086C268.141 277.124 267.546 278.396 266.733 279.94C265.91 281.515 265.297 282.849 265.361 282.97C265.426 283.092 265.857 283.123 266.276 283.082C266.879 282.997 267.803 282.198 269.397 280.319C270.623 278.868 271.792 277.602 272.004 277.465C272.571 277.165 271.791 279.26 270.927 280.416C270.192 281.375 270.195 281.477 270.721 281.639C271.589 281.906 271.244 282.476 269.71 283.494L268.348 284.396L271.349 285.114C274.865 285.924 277.112 286.005 280.369 285.449C285.269 284.619 293.032 281.319 299.942 277.148C307.187 272.775 306.975 272.912 307.328 271.431C307.606 270.196 307.563 270.115 306.538 269.699C305.451 269.263 305.441 269.294 304.199 270.909C302.243 273.523 301.661 273.209 303.357 270.448C304.057 269.275 304.083 269.08 303.679 268.516C303.446 268.173 302.811 267.809 302.266 267.709C301.4 267.545 301.22 267.693 299.93 269.462C298.54 271.336 296.738 273.118 297.557 271.779C297.754 271.467 299.293 268.556 301.007 265.292C304.427 258.797 304.418 258.828 302.435 258.218C301.443 257.914 300.948 258.201 300.615 259.284C300.34 260.18 299.2 261.793 298.514 262.259C297.9 262.713 297.897 262.611 298.489 261.236C298.848 260.399 299.345 259.333 299.609 258.805C300.175 257.626 299.59 256.329 298.289 255.929C297.359 255.644 296.885 255.972 296.496 257.24C296.382 257.611 295.903 258.174 295.439 258.472C294.663 259.012 294.632 259.002 294.75 258.396C294.855 258.055 295.121 257.19 295.38 256.457C295.743 255.384 295.702 254.966 295.196 253.964L294.551 252.751L295.898 253.334C296.623 253.624 297.35 254.017 297.498 254.198C297.646 254.378 298.209 254.754 298.75 255.09C299.623 255.561 299.92 255.585 300.73 255.157C301.257 254.878 301.749 254.488 301.806 254.303C301.854 254.148 301.241 253.385 300.454 252.635C299.666 251.886 299.044 251.153 299.082 251.029C299.177 250.72 298.938 250.613 302.159 252.381C308.976 256.133 317.768 259.748 319.111 259.349C320.15 259.058 320.621 258.188 322.988 252.249C323.741 250.348 324.124 249.654 324.434 249.749C324.744 249.844 324.735 250.315 324.45 251.243C323.642 253.871 320.909 260.341 320.485 260.617C320.273 260.755 319.63 260.861 319.105 260.802C318.572 260.773 317.909 260.942 317.65 261.235C316.979 261.874 314.862 266.334 315.025 266.689C315.132 266.891 324.583 265.158 324.65 264.942C324.659 264.911 324.04 264.72 323.246 264.544C321.401 264.147 321.384 263.871 323.127 260.075C323.876 258.41 324.919 255.786 325.394 254.24L326.259 251.426L325.262 248.819C324.67 247.216 324.311 245.515 324.314 244.399C324.345 241.43 324.783 241.328 325.57 244.176L326.268 246.759L327.066 245.82C327.494 245.308 327.887 245.023 327.892 245.227C327.906 245.401 328.006 246.954 328.067 248.631C328.254 252.547 328.739 253.068 329.403 250.023L329.863 247.863L330.018 250.449C330.236 253.934 330.812 256.141 331.75 257.174L332.539 258.026L332.636 256.939C332.714 256.353 332.799 255.195 332.85 254.365C332.906 252.859 332.915 252.828 333.712 253.107C334.207 253.259 334.895 254.113 335.668 255.569C336.399 256.944 337.976 258.985 339.753 260.817C342.699 263.922 343.074 264.578 342.646 265.97C342.466 266.557 342.621 267.045 343.201 267.697C343.632 268.168 344.124 268.556 344.267 268.532C344.388 268.468 344.886 267.842 345.349 267.105L346.177 265.735L346.184 267.26C346.162 269.317 347.244 271.646 348.889 273.133C350.242 274.361 350.433 275.063 349.485 275.279C348.894 275.436 347.932 276.359 347.733 277.008C347.486 277.812 348.204 278.676 350.424 280.17C353.5 282.299 355.345 283.137 355.535 282.518C355.621 282.24 355.113 279.918 354.415 277.335C353.2 272.901 353.048 271.738 353.668 271.928C353.792 271.966 354.967 274.764 356.238 278.132C357.519 281.47 358.663 284.258 358.809 284.336C359.026 284.403 359.396 282.757 359.556 280.911C359.605 280.419 359.765 280.231 360.106 280.335C360.354 280.412 360.513 280.664 360.437 280.911C360.304 281.344 362.19 284.698 362.655 284.841C362.779 284.879 363.098 284.503 363.374 284.047C364.052 282.834 364.355 283.062 364.502 284.901C364.589 286.383 365.735 288.833 366.448 289.052C366.603 289.1 367.186 288.636 367.724 287.989L368.681 286.862L368.594 287.918C368.474 289.742 369.085 290.844 370.499 291.21C371.407 291.455 371.982 291.903 372.807 292.968C373.38 293.754 374.17 294.605 374.525 294.884C375.109 295.3 375.028 295.343 373.784 295.197C373.002 295.093 372.285 295.109 372.145 295.235C371.692 295.604 372.264 297.607 372.939 297.95C373.718 298.392 382.193 301.605 387.57 303.528C394.023 305.815 396.963 307.394 400.326 310.357C401.311 311.234 402.229 311.889 402.381 311.834C402.512 311.739 403.068 310.59 403.61 309.268C404.559 306.953 404.963 306.299 405.252 306.794C405.316 306.915 404.935 308.93 404.396 311.235C403.229 316.359 403.222 318.15 404.334 320.488C406.02 324.052 412.339 328.43 415.012 327.897L416.053 327.709L414.677 326.339C412.153 323.736 411.106 322.399 411.248 321.936C411.41 321.41 411.942 321.776 414.291 323.953C416.977 326.47 419.944 327.077 422.318 325.641C424.035 324.578 424.075 324.116 422.618 323.229C420.267 321.83 414.969 318.104 414.671 317.64C414.511 317.388 414.315 316.922 414.224 316.555C414.128 315.984 414.335 316.082 415.945 317.355C419.143 319.86 421.852 321.64 422.874 321.954C425.084 322.599 428.926 321.241 429.156 319.721C429.246 319.208 428.826 318.808 427.326 317.84C424.629 316.131 423.42 314.88 421.93 312.223C420.742 310.131 419.325 306.684 419.468 306.221C419.496 306.128 420.506 307.589 421.73 309.454C424.104 313.093 427.375 316.467 429.511 317.462C431.149 318.202 432.242 317.624 432.781 315.759C433.498 313.204 433.38 312.593 432.033 311.13C429.328 308.235 428.118 304.885 428.049 300.363C428.048 299.043 427.796 297.544 427.517 297.019C427.085 296.107 426.794 295.95 424.005 295.094C422.332 294.58 419.796 294.004 418.335 293.792C413.819 293.149 411.179 291.255 407.816 286.195C403.306 279.462 398.591 275.713 389.334 271.515C387.158 270.542 385.019 269.445 384.59 269.076C384.13 268.698 381.798 265.139 379.385 261.183C374.088 252.483 373.568 251.748 371.414 249.597C369.155 247.346 367.133 243.442 366.121 239.341C365.082 234.995 363.731 232.11 361.491 229.357C359.355 226.705 356.83 224.88 353.528 223.595C351.168 222.667 350.606 222.731 351.351 223.839C351.649 224.303 351.557 225.595 351.247 225.5C351.185 225.481 350.756 225.112 350.284 224.662C349.234 223.663 348.014 223.66 345.609 224.647L343.863 225.363L345.153 224.033C345.853 223.301 346.481 222.58 346.538 222.395C346.586 222.24 346.156 221.871 345.575 221.557C344.662 221.107 344.261 221.086 342.787 221.581C341.424 222.042 341.148 222.058 341.486 221.621C342.502 220.41 342.661 219.782 342.217 218.8L341.732 217.839L343.715 218.448C345.915 219.124 345.903 218.612 343.683 217.558C342.594 217.02 342.184 217.03 339.942 217.593C338.556 217.912 337.353 218.185 337.229 218.147C336.671 217.976 338.236 216.967 339.903 216.397C340.92 216.066 341.739 215.607 341.713 215.362C341.686 215.117 340.677 213.657 339.491 212.108C338.315 210.528 337.429 209.106 337.57 208.98C337.877 208.532 338.118 208.742 340.35 211.187C345.491 216.862 349.531 219.828 354.558 221.678C360.103 223.719 365.703 223.815 370.795 222.03C373.194 221.176 374.032 220.655 373.227 220.408C373.072 220.36 371.878 220.163 370.612 219.977C369.018 219.758 368.274 219.529 368.102 219.206C367.823 218.68 368.876 218.564 371.342 218.814C377.129 219.407 383.749 215.519 386.705 209.76C388.046 207.161 388.368 205.229 388.292 200.4L388.219 196.554L384.999 197.764C382.155 198.853 380.449 199.108 380.698 198.406C380.736 198.282 382.453 197.219 384.484 196.016C389.326 193.172 390.061 192.213 392.036 186.559C393.1 183.536 393.409 182.311 393.208 182.08C392.764 181.538 391.926 182.059 391.289 183.25C390.202 185.353 388.716 186.656 384.944 188.78C382.851 189.964 380.424 191.351 379.524 191.852C376.907 193.417 375.298 193.464 370.939 192.091C368.19 191.213 366.305 190.397 363.644 188.903C359.04 186.338 358.203 186.08 357.013 186.865C351.402 190.556 347.998 191.372 342.764 190.305C341.589 190.046 340.429 189.96 340.217 190.098C340.036 190.245 339.496 191.23 339.071 192.284C338.645 193.337 338.115 194.291 337.831 194.441C337.588 194.569 336.642 194.448 335.722 194.131C334.39 193.722 333.889 193.365 333.094 192.309C331.4 190.096 330.48 189.34 328.806 188.826L327.195 188.331L326.551 189.655C325.381 192.139 326.187 195.364 328.682 198.06C330.441 199.954 335.138 203.427 336.533 203.856C337.732 204.258 337.784 204.308 337.241 204.75C336.146 205.666 334.971 205.406 333.121 203.924C330.516 201.804 327.053 198.507 326.132 197.31C325.178 196.002 324.846 195.866 324.618 196.608C324.533 196.886 325.092 198.378 325.846 199.896C326.61 201.383 327.133 202.66 327.012 202.724C326.922 202.798 326.397 202.298 325.879 201.666C324.758 200.238 323.029 199.572 322.763 200.438C322.659 200.778 322.786 201.358 323.032 201.772C323.705 202.893 323.233 202.883 322.364 201.736C321.348 200.409 321.139 200.649 321.774 202.333C322.501 204.384 323.195 205.105 325.149 205.807C327.352 206.585 328.738 207.924 330.125 210.584C331.34 212.92 332.073 216.495 331.636 217.918C331.36 218.815 331.308 218.765 330.796 216.678C329.896 212.984 327.738 209.411 325.571 207.967C324.894 207.522 324.894 207.522 325.441 208.942L325.948 210.384L325.28 209.908C323.05 208.444 318.861 201.438 316.904 195.998C316.364 194.445 315.087 189.991 314.092 186.166C309.48 168.506 307.215 163.072 301.613 156.14C297.386 150.916 294.59 148.534 284.502 141.746C269.515 131.693 262.825 128.081 251.519 123.931C249.512 123.179 247.784 122.513 247.772 122.442C247.581 122.18 233.775 118.108 230.291 117.308ZM394.137 170.115C393.571 170.855 392.382 178.476 392.717 179.154C393.223 180.156 395.382 175.777 395.356 173.874C395.309 171.931 395.047 169.583 394.83 169.516C394.737 169.488 394.416 169.761 394.137 170.115ZM390.758 169.856C389.715 170.381 389.577 170.609 388.921 172.743C388.228 175 386.234 184.472 386.237 185.455C386.257 186.273 387.255 185.564 388.656 183.761L389.989 182.073L391.282 176.209C392.451 170.748 392.595 169.506 392.068 169.344C391.975 169.316 391.365 169.535 390.758 169.856ZM214.153 125.683C204.288 123.465 201.724 122.981 200.199 123.088C198.674 123.195 198.519 123.147 219.575 129.007C225.355 130.614 227.784 131.428 231.007 132.858C235.67 134.899 238.564 135.856 241.135 136.206C243.912 136.552 246.407 137.149 250.724 138.441C252.924 139.117 254.678 139.588 254.635 139.508C254.463 139.184 247.232 135.677 244.188 134.437C239.952 132.662 221.894 127.418 214.153 125.683ZM394.467 185.377C394.549 186.215 396.151 191.377 397.956 196.872C429.229 291.115 429.528 292.019 429.892 291.826C429.964 291.814 429.958 291.17 429.91 290.444C429.73 288.934 429.93 288.724 430.676 289.495C431.306 290.095 431.406 289.99 431.174 288.87C431.018 287.942 428.92 282.187 428.734 282.13C428.672 282.111 428.675 282.654 428.742 283.317C428.947 285.411 428.753 285.047 427.833 281.752C427.35 280.013 426.993 278.414 427.059 278.198C427.297 277.425 423.238 264.808 409.664 224.327C395.326 181.479 395.271 181.327 394.779 182.597C394.47 183.382 394.342 184.459 394.467 185.377ZM203.466 125.919C194.7 124.208 193.683 124.538 198.969 127.313C200.63 128.195 204.006 129.571 207.045 130.606C214.53 133.176 225.957 137.262 228.441 138.228C231.049 139.233 239.314 142.686 240.311 143.195C243.443 144.699 246.314 145.953 246.444 145.857C246.566 145.793 245.705 144.953 244.543 143.988C243.413 143.031 241.731 141.33 240.803 140.267C238.112 137.105 237.757 136.826 233.592 135.039C227.697 132.484 227.604 132.455 218.341 129.711C212.342 127.936 207.906 126.81 203.466 125.919ZM308.171 163.603C312.419 174.722 313.631 177.734 313.848 177.8C314.56 178.019 314.657 176.932 314.064 175.329C313.692 174.334 313.101 172.393 312.79 170.978C311.99 167.619 311.083 165.716 308.979 163.073C308.048 161.907 307.235 160.913 307.173 160.894C307.12 160.844 307.55 162.092 308.171 163.603ZM390.004 194.937C389.518 196.852 389.405 198.543 389.526 202.235C389.645 206.704 389.614 207.135 388.759 209.478C387.537 212.791 385.669 214.789 381.625 217.134C379.977 218.083 377.543 219.602 376.181 220.503C371.128 223.926 367.994 224.858 361.984 224.771C360.568 224.742 359.351 224.842 359.313 224.966C359.275 225.089 359.654 225.51 360.186 225.877C361.636 226.898 364.349 230.54 365.655 233.242C366.293 234.589 367.265 237.493 367.842 239.701C368.966 244.209 369.74 245.665 372.662 248.627C373.745 249.738 375.382 251.696 376.265 253.016C377.157 254.305 378.147 255.388 378.404 255.433C378.898 255.483 381.961 252.025 395.342 236.508C398.102 233.262 401.413 229.44 402.67 227.998C403.917 226.588 405.069 225.047 405.211 224.583C405.382 224.026 403.9 219.138 400.207 208.088C397.332 199.455 394.636 191.453 394.239 190.316L393.522 188.234L392.066 190.325C390.897 192.03 390.498 192.889 390.004 194.937ZM221.326 138.208C218.014 138.172 210.73 138.811 210.452 139.165C210.283 139.384 210.24 139.743 210.348 139.945C210.863 140.916 249.29 153.263 253.62 153.849C254.895 154.004 255.963 154.061 256.001 153.937C256.086 153.659 245.433 147.273 241.549 145.233C236.483 142.628 232.414 140.972 227.511 139.601C224.858 138.853 222.065 138.232 221.326 138.208ZM317.446 191.697C317.836 193.848 318.617 195.17 319.67 195.494C320.817 195.846 323.902 194.967 323.865 194.313C323.87 194.077 323.202 193.601 322.403 193.22C321.595 192.871 320.172 192.095 319.225 191.533C318.279 190.972 317.459 190.551 317.387 190.563C317.306 190.605 317.319 191.117 317.446 191.697ZM321.547 197.221C320.826 197.473 320.816 197.504 321.539 198.132C322.366 198.86 323.202 198.677 323.14 197.778C323.082 197.084 322.493 196.903 321.547 197.221ZM405.191 227.961C404.953 228.294 399.169 234.977 392.357 242.799C385.546 250.622 379.915 257.251 379.829 257.529C379.411 258.889 381.584 263.076 384.196 265.943C386.059 267.937 388.894 269.857 392.105 271.216C399.896 274.557 403.595 277.419 408.374 283.828C409.741 285.669 411.781 288.191 412.919 289.454C414.816 291.56 415.066 291.738 416.257 291.834C416.977 291.919 419.771 292.541 422.442 293.226C425.105 293.943 427.579 294.5 427.877 294.523C428.758 294.524 428.805 293.929 428.172 291.907C427.017 288.27 407.894 231.194 407.179 229.215C406.422 227.154 406.016 226.928 405.191 227.961ZM347.933 220.725C347.521 221.072 348.249 221.905 348.904 221.869C349.497 221.815 349.507 221.784 349.072 221.21C348.564 220.547 348.264 220.421 347.933 220.725ZM98.8111 175.052L97.9224 175.185L99.0621 178.209C99.7071 179.862 100.376 181.218 100.581 181.213C101.605 181.189 101.874 178.328 101.017 176.372C100.493 175.095 100.15 174.888 98.8111 175.052ZM102.382 181.53C101.888 183.138 102.159 184.574 103.157 185.964C104.219 187.474 104.91 187.653 105.252 186.54C105.765 184.87 104.498 180.826 103.32 180.464C102.886 180.331 102.686 180.54 102.382 181.53ZM326.162 256.709C326.68 258.222 326.847 258.341 327.635 257.873C328.302 257.468 328.331 257.376 328.069 255.908L327.796 254.369L326.818 255.016L325.817 255.622L326.162 256.709ZM334.469 257.265C334.307 257.79 335.739 264.389 336.018 264.475C336.978 264.77 337.159 262.085 336.363 259.268C336.014 257.976 335.627 257.248 335.193 257.115C334.852 257.01 334.526 257.079 334.469 257.265ZM328.871 258.929C328.842 259.022 328.943 259.357 329.134 259.619C329.57 260.295 330.082 259.843 330.136 258.675C330.197 257.814 330.166 257.804 329.561 258.227C329.209 258.491 328.909 258.805 328.871 258.929ZM337.923 261.473C337.629 262.432 337.824 266.654 338.257 268.005C338.682 269.49 340.123 271.422 340.609 271.165C340.933 270.993 340.939 267.442 340.645 266.303C340.499 265.784 340.544 265.527 340.73 265.584C340.916 265.641 341.135 265.37 341.187 264.98C341.267 264.497 340.859 263.729 339.912 262.727C338.404 261.012 338.113 260.855 337.923 261.473ZM330.731 260.82C330.31 261.199 330.174 261.529 330.311 262.079C330.431 262.792 330.462 262.802 331.212 262.457C332.084 262.048 332.288 261.603 331.923 260.916C331.579 260.269 331.415 260.252 330.731 260.82ZM324.571 260.011C323.547 260.914 323.673 262.713 324.757 263.046C325.78 263.36 326.448 262.178 326.204 260.546C326.016 259.169 325.645 259.055 324.571 260.011ZM327.366 262.392C325.502 264.595 325.429 265.384 327.17 264.464C327.697 264.186 328.104 263.634 328.36 262.799C328.835 261.253 328.473 261.108 327.366 262.392ZM302.062 255.126C301.954 256.582 302.193 257.129 303.184 257.433C304.145 257.729 304.917 257.424 305.154 256.651C305.392 255.878 304.669 255.25 302.419 254.186C302.264 254.139 302.131 254.572 302.062 255.126ZM306.071 258.083C305.795 258.98 304.956 260.719 304.197 261.975C302.472 264.829 302.301 265.385 302.867 266.304C303.22 266.92 303.49 267.036 304.164 266.939C304.624 266.877 305.181 266.609 305.369 266.328C306.328 264.863 309.176 258.902 309.155 258.422C309.116 258.105 308.715 257.644 308.279 257.408C307.812 257.163 307.382 256.794 307.327 256.642C307.155 255.878 306.527 256.599 306.071 258.083ZM199.909 225.028C199.862 225.183 200.06 225.311 200.336 225.295C200.622 225.247 200.877 225.19 200.896 225.128C200.915 225.067 200.717 224.938 200.469 224.862C200.221 224.786 199.966 224.843 199.909 225.028ZM314.695 260.699C314.116 260.927 313.528 262.067 310.785 268.567L310.203 269.911L311.415 269.167C312.798 268.306 313.553 267.285 315.094 264.036C315.942 262.267 316.142 261.617 315.977 261.161C315.674 260.492 315.466 260.395 314.695 260.699ZM310.588 259.606C309.79 260.106 306.78 266.152 306.728 267.422C306.651 268.448 307.326 268.79 308.567 268.393C309.472 268.096 310.438 266.498 311.899 262.954C312.605 261.208 312.686 260.725 312.385 260.159C311.943 259.278 311.407 259.147 310.588 259.606ZM342.454 269.464C341.762 270.064 342.87 274.736 343.598 274.35C343.972 274.127 344.376 272.593 344.329 271.529C344.233 270.078 343.147 268.865 342.454 269.464ZM197.145 225.194C197.098 225.349 197.174 225.542 197.329 225.589C197.515 225.646 197.78 225.558 197.92 225.432C198.07 225.275 197.984 225.114 197.736 225.038C197.457 224.952 197.202 225.009 197.145 225.194ZM429.605 300.266C429.627 300.746 429.761 300.754 430.351 300.157C430.741 299.769 431.015 299.21 430.986 298.863C430.964 298.382 430.852 298.415 430.262 299.012C429.881 299.369 429.567 299.95 429.605 300.266ZM345.565 273.026C345.347 273.737 346.067 277.241 346.355 276.856C346.672 276.377 346.838 273.518 346.556 272.89C346.327 272.312 345.765 272.376 345.565 273.026ZM184.615 225.913L182.669 226.838L183.066 227.975C183.285 228.584 183.555 229.141 183.71 229.189C184.02 229.284 186.921 227.569 187.044 227.167C187.177 226.734 186.932 225.102 186.716 225.036C186.613 225.038 185.648 225.419 184.615 225.913ZM338.6 273.289C338.46 273.415 336.92 277.984 335.096 283.481C329.062 301.796 327.143 307.602 326.368 309.462L325.624 311.332L326.673 312.331C327.945 313.602 328.596 313.801 329.031 313.157C329.438 312.605 333.546 307.844 343.618 296.251C353.222 285.192 353.012 285.432 353.135 284.59C353.242 283.912 352.739 283.453 349.097 280.845C346.801 279.158 343.72 276.824 342.234 275.589C339.411 273.301 338.931 272.984 338.6 273.289ZM122.628 210.558C122.619 210.589 122.622 211.131 122.637 211.745C122.678 212.604 123.05 213.158 124.622 214.555C125.65 215.514 126.864 216.529 127.291 216.796C127.956 217.169 128.068 217.136 128.258 216.518C128.628 215.312 128.1 213.39 127.143 212.419C126.356 211.67 122.752 210.156 122.628 210.558ZM131.856 213.968C130.714 213.821 129.771 213.802 129.733 213.925C129.6 214.358 131.316 217.051 131.94 217.446C132.72 217.889 134.449 217.337 134.696 216.533C134.858 216.007 134.439 214.39 134.129 214.295C134.005 214.257 132.997 214.116 131.856 213.968ZM437.542 309.202C437.447 309.511 437.988 311.944 438.749 314.547C440.619 321.043 440.458 322.009 438.443 316.314C436.892 311.98 436.333 310.928 436.048 311.856C435.896 312.351 448.925 348.976 449.409 349.497C450.208 350.318 449.983 349.064 448.669 345.175C447.388 341.397 446.849 339.066 447.695 340.95C449.476 345.084 451.895 350.125 452.017 350.061C452.129 350.028 452.104 349.445 451.965 348.793C451.692 347.254 439.068 309.975 438.61 309.259C438.09 308.524 437.761 308.49 437.542 309.202ZM360.28 285.397C360.14 285.523 360.565 286.568 361.188 287.741C362.594 290.338 363.194 290.151 362.134 287.422C361.412 285.576 360.832 284.924 360.28 285.397ZM354.976 286.103C354.317 286.814 351.344 290.199 348.384 293.654C345.423 297.11 340.177 303.147 336.757 307.104C333.316 311.021 330.4 314.66 330.248 315.155C330.03 315.866 330.319 316.801 331.539 319.342C332.404 321.164 333.849 324.518 334.726 326.852C337.265 333.487 338.01 335.035 339.559 337.169C343.802 343.007 348.939 345.601 356.922 345.888C365.448 346.172 372.24 344.266 379.079 339.666C381.903 337.759 402.293 321.282 402.445 320.788C402.502 320.602 402.351 319.879 402.138 319.137C401.916 318.425 401.805 317.241 401.89 316.522C401.975 315.804 401.876 314.691 401.676 314.02C401.341 312.902 400.89 312.493 396.72 309.621C391.652 306.135 391.092 305.862 390.883 306.542C390.76 306.944 390.431 306.911 388.991 306.299C388.059 305.911 383.699 304.098 379.308 302.275C370.402 298.591 368.463 297.725 366.243 296.231C363.68 294.53 360.796 291.444 358.686 288.156C357.619 286.441 356.6 285.011 356.446 284.964C356.291 284.916 355.657 285.432 354.976 286.103ZM364.404 289.304C363.847 290.013 364.474 292.168 365.523 293.167C366.563 294.197 366.87 294.19 367.174 293.201C367.744 291.345 365.399 288.053 364.404 289.304ZM130.464 218.718C130.811 219.908 131.96 220.802 133.61 221.174L134.94 221.481L134.579 220.558C134.24 219.675 132.916 218.795 131.055 218.121C130.227 217.834 130.218 217.864 130.464 218.718ZM168.651 231.736C168.31 232.071 168.258 232.462 168.459 233.132C168.763 234.241 169.218 234.415 170.376 233.958C171.188 233.632 171.267 233.487 171.239 232.362C171.203 231.708 171.073 231.025 170.876 230.897C170.489 230.609 169.332 231.065 168.651 231.736ZM137.503 221.084L136.562 221.167L137.262 222.533C138.047 224.06 138.276 224.198 139.689 224.124L140.63 224.041L139.931 222.676C139.145 221.148 138.916 221.01 137.503 221.084ZM368.875 294.4C370.197 296.938 371.129 296.446 370.018 293.77C369.516 292.533 369.328 292.373 368.684 292.48C368.001 292.608 368.003 292.711 368.875 294.4ZM163.446 231.457C162.341 231.523 161.4 231.607 161.328 231.618C161.288 231.64 161.434 233.039 161.629 234.723C162.04 237.691 162.083 237.772 162.976 237.844C165.614 237.977 166.308 237.818 166.666 236.981C167.337 235.461 166.714 231.75 165.722 231.445C165.567 231.398 164.542 231.421 163.446 231.457ZM169.067 235.79C168.56 236.006 168.422 236.234 168.537 236.743C168.69 237.569 169.455 237.838 170.584 237.474C171.368 237.241 171.397 237.148 171.198 236.14C171.006 234.998 171.006 234.998 169.067 235.79ZM169.897 239.158C169.092 239.351 168.699 239.636 168.728 239.983C168.76 240.433 168.986 240.468 170.189 240.195C171.607 239.886 171.859 239.727 171.57 239.232C171.355 238.828 171.191 238.811 169.897 239.158ZM157.82 235.312C156.814 235.274 156.809 235.509 157.909 236.896C158.809 238.052 158.861 238.102 159.528 237.698C160.438 237.165 160.445 237.032 159.584 236.192C158.763 235.331 158.825 235.35 157.82 235.312ZM163.766 239.136C163.152 239.15 163.374 239.861 164.025 240.061C164.304 240.147 165.157 240.24 165.905 240.233C167.146 240.276 167.196 240.223 166.541 239.819C165.864 239.374 164.688 239.114 163.766 239.136ZM402.578 322.893C400.825 323.742 401.305 324.938 403.285 324.565C404.357 324.387 404.398 324.366 404.13 323.471C403.795 322.353 403.743 322.303 402.578 322.893ZM404.743 325.893C404.593 326.05 404.503 326.563 404.627 327.042L404.771 327.898L405.723 327.446C406.757 326.952 406.983 326.547 406.596 325.819C406.338 325.334 405.345 325.367 404.743 325.893ZM408.256 327.48C407.015 327.877 406.945 328.769 408.069 330.299C408.641 331.084 408.847 331.519 408.553 331.26C408.251 331.031 407.461 330.62 406.777 330.308C405.74 329.82 405.361 329.839 404.216 330.367L402.877 330.971L403.436 329.484C403.754 328.669 403.963 327.988 403.87 327.96C403.374 327.807 401.597 328.073 401.388 328.314C400.9 328.908 397.03 331.679 396.923 331.477C396.88 331.396 397.615 330.437 398.625 329.36C399.593 328.304 400.526 327.034 400.669 326.57C400.973 325.58 401.025 325.63 399.693 325.661C398.864 325.711 397.807 326.503 394.024 329.875C383.489 339.329 379.027 342.594 373.63 344.929C366.082 348.194 358.541 348.788 350.606 346.688C346.087 345.503 344.282 344.644 341.664 342.351C338.06 339.179 336.401 336.301 332.784 327.102C329.1 317.679 327.501 315.157 323.337 312.152C321.031 310.496 319.78 310.044 317.867 310.201C315.779 310.372 314.696 311.359 314.205 313.509C313.7 315.926 314.521 316.787 316.602 315.971C317.598 315.6 317.677 315.455 318.004 313.728C318.442 311.528 319.028 311.167 319.287 312.972C319.472 314.247 319.577 314.347 322.729 316.229C324.415 317.255 325.37 319.003 326.377 322.9C327.721 328.017 328.827 330.928 330.842 334.525C333.812 339.871 337.67 344.203 342.362 347.472C345.71 349.82 352.182 352.046 356.641 352.434C366.039 353.19 381.751 350.064 393.634 345.052C401.316 341.794 405.323 338.795 409.339 333.227C411.393 330.406 411.592 329.317 410.247 327.956C409.552 327.235 409.243 327.14 408.256 327.48ZM453.984 348.736C453.564 350.435 453.28 352.242 453.363 352.742C453.478 353.251 454.799 356.567 456.33 360.083C458.296 364.613 459.189 366.342 459.375 365.959C459.532 365.669 458.954 362.141 458.097 358.088C455.918 347.74 455.482 345.846 455.079 345.723C454.831 345.646 454.515 346.565 453.984 348.736ZM252.818 287.374C248.908 290.606 249.277 290.178 249.876 290.768C250.339 291.248 250.632 291.067 252.776 289.053C254.1 287.835 255.24 286.663 255.307 286.446C255.582 285.55 254.515 285.932 252.818 287.374ZM444.154 350.488C444.836 351.577 447.435 354.711 455.171 363.856C456.386 365.312 457.268 366.192 457.125 365.776C455.407 361.322 451.383 352.675 450.809 352.228C449.774 351.402 448.934 351.043 446 350.108L443.376 349.267L444.154 350.488ZM230.131 292.451C229.498 292.967 229.519 293.008 230.573 293.331C231.967 293.76 233.968 292.987 234.31 291.874L234.547 291.101L232.66 291.502C231.641 291.73 230.493 292.156 230.131 292.451ZM64.3185 260.833C63.3154 260.897 63.9856 261.475 65.1986 261.611C65.7634 261.649 66.3567 261.594 66.4876 261.499C66.778 261.216 65.2597 260.75 64.3185 260.833ZM67.4615 263.186C67.319 263.65 68.6209 264.49 69.2737 264.352C69.855 264.226 69.874 264.164 69.5707 263.495C69.2794 262.898 69.0815 262.77 68.3762 262.858C67.9164 262.919 67.4995 263.062 67.4615 263.186ZM79.9784 269.908C78.6109 270.164 78.5159 270.474 79.5604 271.268C80.2591 271.754 80.6094 271.827 81.71 271.556C82.9536 271.262 83.0036 271.209 82.6003 270.646C82.0491 269.901 81.2744 269.663 79.9784 269.908ZM85.2235 272.704C84.4373 272.834 83.7751 273.003 83.7466 273.096C83.7276 273.158 83.9399 273.46 84.2238 273.75C84.6341 274.181 84.9725 274.183 86.0586 273.738C87.2877 273.27 87.6446 272.771 86.9319 272.552C86.7769 272.504 85.9788 272.563 85.2235 272.704ZM35.8755 261.908C34.5733 263.166 34.1784 263.79 34.5813 263.913C35.0246 264.016 37.8458 261.566 37.7333 261.159C37.573 260.467 37.1871 260.619 35.8755 261.908ZM101.454 284.999C101.533 285.294 102.937 285.692 103.301 285.499C103.382 285.456 103.334 285.171 103.203 284.826C102.985 284.319 102.84 284.241 102.168 284.441C101.72 284.574 101.408 284.816 101.454 284.999ZM149.316 301.734C149.381 301.856 149.65 301.972 149.895 301.946C150.172 301.929 150.107 301.808 149.767 301.703C149.435 301.568 149.221 301.603 149.316 301.734Z" fill="#E7E7E7"/>
<path d="M460.483 338.08C459.429 337.521 458.326 337.195 457.238 337.12C456.149 337.045 455.096 337.223 454.139 337.644C453.181 338.065 452.338 338.721 451.657 339.574C450.977 340.426 450.472 341.459 450.172 342.614L449.548 345.009L447.362 343.849C445.234 342.721 442.952 342.564 441.019 343.414C439.085 344.265 437.658 346.052 437.051 348.383C436.445 350.714 436.708 353.398 437.784 355.844C438.859 358.29 440.659 360.299 442.787 361.428L444.973 362.587L461.02 371.098L465.595 353.52L466.218 351.125C466.519 349.971 466.609 348.718 466.484 347.438C466.358 346.157 466.019 344.875 465.487 343.663C464.954 342.452 464.238 341.335 463.379 340.377C462.521 339.419 461.536 338.639 460.483 338.08Z" fill="#ECECEC"/>
</svg>
