<svg width="28" height="25" viewBox="0 0 28 25" fill="none" xmlns="http://www.w3.org/2000/svg">
<path d="M24.7389 3.03337C24.128 2.38873 23.4027 1.87736 22.6045 1.52847C21.8062 1.17958 20.9506 1 20.0865 1C19.2224 1 18.3668 1.17958 17.5685 1.52847C16.7702 1.87736 16.0449 2.38873 15.4341 3.03337L14.1663 4.37059L12.8986 3.03337C11.6647 1.73186 9.99113 1.00067 8.24614 1.00067C6.50114 1.00067 4.82762 1.73186 3.59372 3.03337C2.35982 4.33488 1.66663 6.1001 1.66663 7.94072C1.66663 9.78133 2.35982 11.5466 3.59372 12.8481L4.86147 14.1853L14.1663 24L23.4711 14.1853L24.7389 12.8481C25.35 12.2037 25.8348 11.4387 26.1656 10.5967C26.4964 9.75467 26.6666 8.85216 26.6666 7.94072C26.6666 7.02928 26.4964 6.12677 26.1656 5.28475C25.8348 4.44273 25.35 3.6777 24.7389 3.03337Z" stroke="white" stroke-width="2" stroke-linecap="round" stroke-linejoin="round"/>
</svg>
