<svg width="40" height="40" viewBox="0 0 40 40" fill="none" xmlns="http://www.w3.org/2000/svg">
<rect width="40" height="40" rx="20" fill="#16171A"/>
<path d="M22 16H9C8.73478 16 8.48043 15.8946 8.29289 15.7071C8.10536 15.5196 8 15.2652 8 15C8 14.7348 8.10536 14.4804 8.29289 14.2929C8.48043 14.1054 8.73478 14 9 14H22C22.2652 14 22.5196 14.1054 22.7071 14.2929C22.8946 14.4804 23 14.7348 23 15C23 15.2652 22.8946 15.5196 22.7071 15.7071C22.5196 15.8946 22.2652 16 22 16ZM31 16H27C26.7348 16 26.4804 15.8946 26.2929 15.7071C26.1054 15.5196 26 15.2652 26 15C26 14.7348 26.1054 14.4804 26.2929 14.2929C26.4804 14.1054 26.7348 14 27 14H31C31.2652 14 31.5196 14.1054 31.7071 14.2929C31.8946 14.4804 32 14.7348 32 15C32 15.2652 31.8946 15.5196 31.7071 15.7071C31.5196 15.8946 31.2652 16 31 16Z" fill="white"/>
<path d="M24.5 18.5C23.8078 18.5 23.1311 18.2947 22.5555 17.9101C21.9799 17.5256 21.5313 16.9789 21.2664 16.3394C21.0015 15.6999 20.9322 14.9961 21.0673 14.3172C21.2023 13.6383 21.5356 13.0146 22.0251 12.5251C22.5146 12.0356 23.1383 11.7023 23.8172 11.5673C24.4961 11.4322 25.1999 11.5015 25.8394 11.7664C26.4789 12.0313 27.0256 12.4799 27.4101 13.0555C27.7947 13.6311 28 14.3078 28 15C28 15.9283 27.6313 16.8185 26.9749 17.4749C26.3185 18.1313 25.4283 18.5 24.5 18.5ZM24.5 13.5C24.2033 13.5 23.9133 13.588 23.6666 13.7528C23.42 13.9176 23.2277 14.1519 23.1142 14.426C23.0007 14.7001 22.9709 15.0017 23.0288 15.2926C23.0867 15.5836 23.2296 15.8509 23.4393 16.0607C23.6491 16.2704 23.9164 16.4133 24.2074 16.4712C24.4983 16.5291 24.7999 16.4994 25.074 16.3858C25.3481 16.2723 25.5824 16.08 25.7472 15.8334C25.912 15.5867 26 15.2967 26 15C26 14.6022 25.842 14.2206 25.5607 13.9393C25.2794 13.658 24.8978 13.5 24.5 13.5ZM31 26H18C17.7348 26 17.4804 25.8946 17.2929 25.7071C17.1054 25.5196 17 25.2652 17 25C17 24.7348 17.1054 24.4804 17.2929 24.2929C17.4804 24.1054 17.7348 24 18 24H31C31.2652 24 31.5196 24.1054 31.7071 24.2929C31.8946 24.4804 32 24.7348 32 25C32 25.2652 31.8946 25.5196 31.7071 25.7071C31.5196 25.8946 31.2652 26 31 26ZM13 26H9C8.73478 26 8.48043 25.8946 8.29289 25.7071C8.10536 25.5196 8 25.2652 8 25C8 24.7348 8.10536 24.4804 8.29289 24.2929C8.48043 24.1054 8.73478 24 9 24H13C13.2652 24 13.5196 24.1054 13.7071 24.2929C13.8946 24.4804 14 24.7348 14 25C14 25.2652 13.8946 25.5196 13.7071 25.7071C13.5196 25.8946 13.2652 26 13 26Z" fill="white"/>
<path d="M15.5 28.5C14.8078 28.5 14.1311 28.2947 13.5555 27.9101C12.9799 27.5256 12.5313 26.9789 12.2664 26.3394C12.0015 25.6999 11.9322 24.9961 12.0673 24.3172C12.2023 23.6383 12.5356 23.0146 13.0251 22.5251C13.5146 22.0356 14.1383 21.7023 14.8172 21.5673C15.4961 21.4322 16.1999 21.5015 16.8394 21.7664C17.4789 22.0313 18.0256 22.4799 18.4101 23.0555C18.7947 23.6311 19 24.3078 19 25C19 25.9283 18.6313 26.8185 17.9749 27.4749C17.3185 28.1313 16.4283 28.5 15.5 28.5ZM15.5 23.5C15.2033 23.5 14.9133 23.588 14.6666 23.7528C14.42 23.9176 14.2277 24.1519 14.1142 24.426C14.0007 24.7001 13.9709 25.0017 14.0288 25.2926C14.0867 25.5836 14.2296 25.8509 14.4393 26.0607C14.6491 26.2704 14.9164 26.4133 15.2074 26.4712C15.4983 26.5291 15.7999 26.4994 16.074 26.3858C16.3481 26.2723 16.5824 26.08 16.7472 25.8334C16.912 25.5867 17 25.2967 17 25C17 24.6022 16.842 24.2206 16.5607 23.9393C16.2794 23.658 15.8978 23.5 15.5 23.5Z" fill="white"/>
</svg>
