<svg width="56" height="35" viewBox="0 0 56 35" fill="none" xmlns="http://www.w3.org/2000/svg">
<path fill-rule="evenodd" clip-rule="evenodd" d="M14.5347 -5.72205e-06V29.0689H13.5347V-5.72205e-06H14.5347Z" fill="url(#paint0_linear_28_108)" fill-opacity="0.3"/>
<path fill-rule="evenodd" clip-rule="evenodd" d="M29.0689 14.5345L0 14.5345L0 13.5345L29.0689 13.5345V14.5345Z" fill="url(#paint1_linear_28_108)" fill-opacity="0.3"/>
<path fill-rule="evenodd" clip-rule="evenodd" d="M6.51423 6.52941L21.4503 21.9207L20.9365 22.4501L6.00041 7.05889L6.51423 6.52941Z" fill="url(#paint2_linear_28_108)" fill-opacity="0.3"/>
<path fill-rule="evenodd" clip-rule="evenodd" d="M21.4499 6.52946L6.51382 21.9207L6 21.3912L20.9361 5.99999L21.4499 6.52946Z" fill="url(#paint3_linear_28_108)" fill-opacity="0.3"/>
<path fill-rule="evenodd" clip-rule="evenodd" d="M45 15V35H44V15H45Z" fill="url(#paint4_linear_28_108)" fill-opacity="0.3"/>
<path fill-rule="evenodd" clip-rule="evenodd" d="M55 25L35 25V24L55 24V25Z" fill="url(#paint5_linear_28_108)" fill-opacity="0.3"/>
<path fill-rule="evenodd" clip-rule="evenodd" d="M39.3515 19.3511L49.5576 29.5573L49.2065 29.9084L39.0003 19.7022L39.3515 19.3511Z" fill="url(#paint6_linear_28_108)" fill-opacity="0.3"/>
<path fill-rule="evenodd" clip-rule="evenodd" d="M49.5573 19.3511L39.3511 29.5573L39 29.2062L49.2062 19L49.5573 19.3511Z" fill="url(#paint7_linear_28_108)" fill-opacity="0.3"/>
<defs>
<linearGradient id="paint0_linear_28_108" x1="15.0347" y1="29.0689" x2="15.0347" y2="-5.72205e-06" gradientUnits="userSpaceOnUse">
<stop stop-color="#737373"/>
<stop offset="1" stop-color="#9F9F9F"/>
</linearGradient>
<linearGradient id="paint1_linear_28_108" x1="0" y1="15.0345" x2="29.0689" y2="15.0345" gradientUnits="userSpaceOnUse">
<stop stop-color="#737373"/>
<stop offset="1" stop-color="#9F9F9F"/>
</linearGradient>
<linearGradient id="paint2_linear_28_108" x1="21.7073" y1="21.6559" x2="6.32293" y2="6.72654" gradientUnits="userSpaceOnUse">
<stop stop-color="#737373"/>
<stop offset="1" stop-color="#9F9F9F"/>
</linearGradient>
<linearGradient id="paint3_linear_28_108" x1="6.77073" y1="22.1854" x2="22.155" y2="7.25607" gradientUnits="userSpaceOnUse">
<stop stop-color="#737373"/>
<stop offset="1" stop-color="#9F9F9F"/>
</linearGradient>
<linearGradient id="paint4_linear_28_108" x1="45.5" y1="35" x2="45.5" y2="15" gradientUnits="userSpaceOnUse">
<stop stop-color="#737373"/>
<stop offset="1" stop-color="#9F9F9F"/>
</linearGradient>
<linearGradient id="paint5_linear_28_108" x1="35" y1="25.5" x2="55" y2="25.5" gradientUnits="userSpaceOnUse">
<stop stop-color="#737373"/>
<stop offset="1" stop-color="#9F9F9F"/>
</linearGradient>
<linearGradient id="paint6_linear_28_108" x1="49.7332" y1="29.3817" x2="39.527" y2="19.1755" gradientUnits="userSpaceOnUse">
<stop stop-color="#737373"/>
<stop offset="1" stop-color="#9F9F9F"/>
</linearGradient>
<linearGradient id="paint7_linear_28_108" x1="39.5267" y1="29.7329" x2="49.7329" y2="19.5267" gradientUnits="userSpaceOnUse">
<stop stop-color="#737373"/>
<stop offset="1" stop-color="#9F9F9F"/>
</linearGradient>
</defs>
</svg>
