<svg width="347" height="348" viewBox="0 0 347 348" fill="none" xmlns="http://www.w3.org/2000/svg">
<g filter="url(#filter0_d_1_677)">
<g clip-path="url(#clip0_1_677)">
<path d="M11.5768 208.739L173.93 173.843L14.2516 128.839L11.5768 208.739Z" fill="#F6F6F6" stroke="#DEDEDE" stroke-width="2"/>
<path d="M12.746 215.659L174.178 172.753L49.9202 283.799L12.746 215.659Z" fill="#F6F6F6" stroke="#DEDEDE" stroke-width="2"/>
<path d="M55.8309 289.05L173.575 172.386L123.252 329.242L55.8309 289.05Z" fill="#F6F6F6" stroke="#DEDEDE" stroke-width="2"/>
<path d="M131.118 331.958L173.942 171.782L209.692 333.412L131.118 331.958Z" fill="#F6F6F6" stroke="#DEDEDE" stroke-width="2"/>
<path d="M216.73 332.728L174.665 172.635L284.633 294.582L216.73 332.728Z" fill="#F6F6F6" stroke="#DEDEDE" stroke-width="2"/>
<path d="M290.856 288.436L174.416 173.725L330.195 221.737L290.856 288.436Z" fill="#F6F6F6" stroke="#DEDEDE" stroke-width="2"/>
<path d="M335.324 137.122L173.575 172.386L333.266 215.328L335.324 137.122Z" fill="#F6F6F6" stroke="#DEDEDE" stroke-width="2"/>
<path d="M60.2181 49.2049L173.942 171.782L131.024 12.4109L60.2181 49.2049Z" fill="#F6F6F6" stroke="#DEDEDE" stroke-width="2"/>
<path d="M138.406 6.63779L174.641 168.15L215.759 9.41819L138.406 6.63779Z" fill="#122357"/>
<path fill-rule="evenodd" clip-rule="evenodd" d="M173.657 45.574C172.948 42.6051 173.169 39.6027 175.369 36.9825C180.693 30.6312 193.12 32.7176 193.266 42.312L193.254 43.0154C192.925 47.4134 191.463 48.893 189.36 52.4822C187.88 55.1013 181.795 66.0767 186.701 68.1176C188.857 69.0078 191.854 67.6711 193.417 66.1611L194.24 65.3553C194.057 66.0506 194.127 65.9272 193.774 66.4596C192.224 68.7516 188.304 70.4388 185.657 69.0819C180.333 66.3455 185.017 56.029 186.83 52.3979C188.564 48.925 190.442 46.9512 190.582 42.9314C190.784 36.9787 184.213 34.838 179.725 37.5261C175.892 39.8088 176.282 43.9452 177.738 47.5618C176.561 46.5835 175.16 45.9013 173.657 45.574Z" fill="#8B8B8B"/>
<path d="M172.134 45.8075C173.316 45.8604 174.476 46.1462 175.547 46.6484C176.618 47.1506 177.579 47.8593 178.376 48.7338C179.172 49.6083 179.787 50.6314 180.187 51.7443C180.586 52.8572 180.761 54.0379 180.703 55.2187C180.651 56.3998 180.366 57.5589 179.864 58.6296C179.363 59.7003 178.654 60.6614 177.78 61.4576C176.905 62.2539 175.882 62.8696 174.768 63.2695C173.655 63.6694 172.473 63.8455 171.292 63.7877C170.109 63.7347 168.949 63.4487 167.877 62.946C166.805 62.4433 165.844 61.734 165.047 60.8587C164.251 59.9834 163.636 58.9594 163.237 57.8457C162.838 56.732 162.663 55.5506 162.723 54.3692C162.776 53.1882 163.062 52.0292 163.564 50.959C164.067 49.8887 164.776 48.9282 165.651 48.1327C166.526 47.3371 167.55 46.7222 168.664 46.3232C169.778 45.9243 170.959 45.7491 172.141 45.8078L172.134 45.8075ZM175.941 50.9543C175.437 50.3961 174.827 49.9431 174.147 49.6214C173.468 49.2998 172.731 49.1159 171.979 49.0804C171.228 49.0449 170.477 49.1585 169.77 49.4146C169.062 49.6707 168.413 50.0642 167.859 50.5725C167.301 51.0757 166.849 51.6842 166.528 52.3629C166.206 53.0417 166.023 53.7772 165.987 54.5271C165.952 55.277 166.065 56.0266 166.321 56.7325C166.577 57.4385 166.97 58.0869 167.478 58.6405C167.981 59.1988 168.591 59.6518 169.271 59.9734C169.951 60.2951 170.688 60.4789 171.439 60.5144C172.19 60.5499 172.941 60.4363 173.649 60.1802C174.356 59.9241 175.005 59.5306 175.559 59.0223C176.117 58.5191 176.569 57.9106 176.89 57.2319C177.212 56.5532 177.395 55.8177 177.431 55.0677C177.466 54.3178 177.353 53.5683 177.097 52.8623C176.841 52.1563 176.448 51.5079 175.941 50.9543Z" fill="#F5F5F5"/>
<path d="M224.265 14.9252L174.428 171.663L290.347 55.9576L224.265 14.9252Z" fill="#F6F6F6" stroke="#DEDEDE" stroke-width="2"/>
<path d="M296.861 61.5761L173.207 172.99L333.064 129.953L296.861 61.5761Z" fill="#F6F6F6" stroke="#DEDEDE" stroke-width="2"/>
<path d="M16.482 121.091L175.518 171.912L56.661 55.7315L16.482 121.091Z" fill="#F6F6F6" stroke="#DEDEDE" stroke-width="2"/>
<circle cx="173.801" cy="169.524" r="61.5" transform="rotate(2.70493 173.801 169.524)" fill="white"/>
<g clip-path="url(#clip1_1_677)">
<path d="M196.155 151.81L192.051 150.307C191.473 150.097 190.852 150.394 190.633 150.96C190.422 151.538 190.72 152.159 191.286 152.378L193.478 153.182L183.171 160.858C182.499 159.783 181.936 158.61 181.358 157.391C179.599 153.702 177.619 149.518 171.698 148.453C167.383 147.307 159.953 147.805 155.957 148.071C154.464 148.157 152.638 146.934 152.044 145.472L151.878 144.955C151.689 144.381 151.065 144.059 150.491 144.248C149.918 144.437 149.596 145.062 149.785 145.635L149.956 146.185C149.965 146.197 149.971 146.229 149.979 146.241C150.431 147.388 151.279 148.404 152.32 149.113L161.064 177.304L156.234 180.901L152.528 179.687C151.947 179.497 151.323 179.815 151.133 180.396C150.944 180.977 151.262 181.601 151.843 181.791L154.076 182.527L152.262 183.878L148.714 182.582C148.136 182.372 147.516 182.669 147.296 183.235C147.086 183.813 147.383 184.434 147.95 184.653L151.376 185.91L151.599 189.554C151.635 190.168 152.157 190.622 152.771 190.586C152.994 190.566 153.194 190.49 153.359 190.367C153.642 190.157 153.819 189.805 153.803 189.414L153.577 185.645L155.391 184.294L155.457 186.644C155.473 187.255 155.979 187.738 156.59 187.723C156.822 187.715 157.043 187.642 157.219 187.51C157.502 187.3 157.677 186.969 157.657 186.598L157.556 182.7L162.385 179.103L186.905 195.527C187.306 196.73 188.025 197.842 189.007 198.595C189.016 198.607 189.045 198.621 189.054 198.633L189.531 198.955C189.933 199.224 190.45 199.205 190.815 198.933C190.909 198.863 190.995 198.781 191.063 198.675C191.408 198.18 191.278 197.489 190.783 197.144L190.335 196.837C189.028 195.795 188.377 193.57 188.976 192.135C190.809 187.712 192.884 181.13 193.1 177.141C193.401 171.717 190.016 168.304 187.033 165.307C186.137 164.399 185.268 163.526 184.498 162.616L194.805 154.94L194.947 157.27C194.984 157.884 195.505 158.338 196.119 158.302C196.342 158.282 196.542 158.206 196.707 158.084C196.99 157.873 197.167 157.521 197.151 157.13L196.887 152.767C196.844 152.341 196.563 151.964 196.155 151.81ZM190.892 177.028C190.695 180.6 188.764 186.909 186.937 191.291C186.759 191.716 186.649 192.183 186.58 192.656L164.273 177.679L182.72 163.941C183.577 164.969 184.528 165.927 185.451 166.87C188.369 169.805 191.133 172.582 190.892 177.028ZM179.363 158.328C179.973 159.613 180.609 160.935 181.395 162.162L162.948 175.9L154.983 150.206C155.362 150.272 155.738 150.285 156.108 150.265C159.998 150.005 167.229 149.51 171.176 150.58C171.206 150.595 171.247 150.601 171.267 150.604C176.097 151.458 177.605 154.638 179.363 158.328Z" fill="#8B8B8B"/>
</g>
<path fill-rule="evenodd" clip-rule="evenodd" d="M238.734 63.7272L244.716 62.7267L248.569 67.2103L246.402 70.2045L238.734 63.7272Z" fill="#8B8B8B"/>
<path fill-rule="evenodd" clip-rule="evenodd" d="M244.151 65.9541L247.136 68.1144L234.099 86.1257L231.114 83.9654L244.151 65.9541Z" fill="#8B8B8B"/>
<path fill-rule="evenodd" clip-rule="evenodd" d="M234.288 85.8651L234.255 88.2951L230.75 87.3022L225.349 85.6347L231.303 83.7047L234.288 85.8651Z" fill="#8B8B8B"/>
<path fill-rule="evenodd" clip-rule="evenodd" d="M231.157 86.3524L225.926 93.5801L229.967 93.99L233.92 87.5843L231.157 86.3524ZM251.719 67.3891L244.487 70.1155L243.483 72.5567L250.718 69.9829L251.719 67.3891Z" fill="#8B8B8B"/>
<path fill-rule="evenodd" clip-rule="evenodd" d="M234.288 85.8649L240.341 91.3052L254.24 72.8412L250.35 69.6551L251.723 67.3832L258.469 72.2659C258.469 72.2659 247.071 86.318 244.422 93.3676L239.446 94.9382L233.172 87.9875L234.288 85.8649Z" fill="#8B8B8B"/>
<path fill-rule="evenodd" clip-rule="evenodd" d="M231.657 53.0444L227.353 54.9594L232.39 58.6057L234.664 56.7478L231.657 53.0444Z" fill="#122357"/>
<path fill-rule="evenodd" clip-rule="evenodd" d="M230.074 55.7641L233.059 57.9244L220.021 75.9357L217.037 73.7754L230.074 55.7641Z" fill="#122357"/>
<path fill-rule="evenodd" clip-rule="evenodd" d="M220.211 75.6753L220.172 78.1012L215.991 78.3575L214.928 74.305L217.226 73.515L220.211 75.6753Z" fill="#122357"/>
<path fill-rule="evenodd" clip-rule="evenodd" d="M231.494 58.4869L237.477 57.4864L241.33 61.9699L238.68 64.5531L231.494 58.4869Z" fill="#122357"/>
<path fill-rule="evenodd" clip-rule="evenodd" d="M236.912 60.7137L239.896 62.874L226.859 80.8853L223.875 78.725L236.912 60.7137Z" fill="#122357"/>
<path fill-rule="evenodd" clip-rule="evenodd" d="M227.048 80.6244L227.015 83.0544L222.833 83.3107L221.77 79.2582L224.063 78.464L227.048 80.6244Z" fill="#122357"/>
<g clip-path="url(#clip2_1_677)">
<path fill-rule="evenodd" clip-rule="evenodd" d="M88.0684 121.705L84.5497 126.738C81.2148 119.603 61.81 109.38 61.81 109.38L64.3868 105.694C64.8043 104.987 78.1156 118.551 88.0684 121.705Z" fill="#8B8B8B"/>
<path fill-rule="evenodd" clip-rule="evenodd" d="M92.7637 114.989L96.2824 109.956C88.4363 109.274 72.1713 94.5593 72.1713 94.5593L69.5945 98.245C69.0737 98.88 86.3837 106.724 92.7637 114.989Z" fill="#8B8B8B"/>
<path fill-rule="evenodd" clip-rule="evenodd" d="M56.2751 114.087C56.2751 114.087 70.9658 95.9759 74.6415 87.7173L76.8974 89.2944L58.5169 115.585L56.2751 114.087ZM82.6119 132.5C82.6119 132.5 94.577 112.483 101.076 106.199L98.8206 104.622L80.4402 130.912L82.6119 132.5Z" fill="#122357"/>
</g>
<path fill-rule="evenodd" clip-rule="evenodd" d="M51.1031 170.854C51.1588 169.739 51.4346 168.646 51.9146 167.639C52.3946 166.631 53.0693 165.728 53.8997 164.982C54.7302 164.237 55.7 163.663 56.7533 163.293C57.8066 162.924 58.9226 162.767 60.0369 162.831C61.1505 162.889 62.2418 163.166 63.248 163.646C64.2542 164.127 65.1554 164.802 65.8998 165.632C66.6442 166.462 67.2171 167.431 67.5856 168.484C67.9541 169.536 68.1108 170.651 68.0468 171.764C67.9903 172.878 67.7141 173.97 67.2342 174.976C66.7543 175.983 66.0801 176.884 65.2505 177.629C64.4208 178.374 63.452 178.948 62.3998 179.317C61.3477 179.687 60.2329 179.844 59.1196 179.781C58.0053 179.725 56.9131 179.45 55.9059 178.97C54.8986 178.49 53.9961 177.816 53.2504 176.987C52.5047 176.157 51.9305 175.188 51.5609 174.135C51.1913 173.082 51.0399 171.967 51.1031 170.854ZM55.82 167.121C55.2671 167.613 54.8173 168.21 54.4963 168.877C54.1753 169.544 53.9896 170.268 53.9499 171.007C53.9102 171.746 54.0172 172.485 54.2648 173.183C54.5125 173.88 54.8958 174.522 55.3926 175.071C55.8848 175.623 56.4816 176.073 57.1486 176.394C57.8155 176.715 58.5394 176.901 59.2785 176.941C60.0176 176.98 60.7573 176.873 61.4548 176.626C62.1523 176.378 62.7939 175.995 63.3425 175.498C63.8953 175.006 64.3452 174.409 64.6661 173.742C64.9871 173.075 65.1728 172.351 65.2125 171.612C65.2523 170.873 65.1452 170.133 64.8976 169.436C64.65 168.738 64.2667 168.097 63.7698 167.548C63.2776 166.995 62.6808 166.545 62.0139 166.224C61.3469 165.903 60.623 165.718 59.8839 165.678C59.1448 165.638 58.4052 165.745 57.7076 165.993C57.0101 166.241 56.3686 166.624 55.82 167.121Z" fill="#122357"/>
<path fill-rule="evenodd" clip-rule="evenodd" d="M43.5839 186.237C42.7834 185.639 41.9244 184.723 41.4215 183.869C40.1024 181.654 40.9695 179.84 43.2059 178.717L43.2192 178.705C45.2355 177.571 47.4928 176.179 49.1273 174.519C50.101 173.537 51.0261 172.288 51.1031 170.854C51.1802 169.42 50.3948 168.072 49.532 166.991C48.0844 165.172 45.996 163.54 44.1066 162.196L44.0944 162.189C42.8572 161.384 41.8038 160.211 42.0651 158.636C42.1694 157.985 42.4789 157.39 42.8728 156.869C43.4709 156.068 44.4096 155.267 45.2765 154.746L45.8238 154.422L47.2949 156.861L46.7473 157.191C46.2891 157.469 45.8734 157.812 45.513 158.209C45.331 158.426 45.0926 158.754 45.0768 159.05C45.0582 159.396 45.4223 159.661 45.685 159.821L45.7214 159.848C48.0729 161.28 50.4596 163.111 52.0792 165.368C53.2648 167.015 54.0694 168.944 53.9585 171.007C53.848 173.064 52.8412 174.896 51.4859 176.406C49.6337 178.476 47.0644 180.041 44.5727 181.219L44.5339 181.236C44.2557 181.366 43.8714 181.592 43.8465 181.937C43.8044 182.604 44.8229 183.604 45.3078 183.971L45.8172 184.352L44.0929 186.624L43.5839 186.237Z" fill="#8B8B8B"/>
<g clip-path="url(#clip3_1_677)">
<path fill-rule="evenodd" clip-rule="evenodd" d="M74.9062 220.346C76.1323 219.619 77.3224 218.833 78.4722 217.99C80.5224 216.485 82.5046 214.889 84.4131 213.208L85.0116 212.68L88.1813 218.268L87.4181 218.506C84.9958 219.281 82.6091 220.164 80.2653 221.151C79.3437 221.543 78.426 221.955 77.5332 222.411C77.1592 222.594 76.7804 222.795 76.4165 223.008L74.9062 220.346Z" fill="#122357"/>
<path fill-rule="evenodd" clip-rule="evenodd" d="M74.3138 220.667L75.4325 222.64L69.7732 225.85C67.3517 227.223 64.4595 228.227 61.6494 227.728C59.5194 227.343 57.7474 226.147 56.5696 224.338C56.1808 223.755 55.8735 223.111 55.6357 222.45C54.8072 220.095 54.9098 217.315 56.2237 215.15C57.2824 213.391 58.967 212.327 60.9814 211.959L61.4285 211.879L63.5355 215.593L62.8011 215.843C61.6123 216.25 60.3002 216.886 59.4386 217.83C59.1653 218.102 58.9532 218.428 58.8164 218.788C58.6796 219.148 58.6212 219.533 58.6453 219.917C58.76 220.632 59.1499 221.274 59.7318 221.705C60.6039 222.358 61.623 222.787 62.6996 222.954C66.317 223.625 70.5146 222.395 73.7849 220.909L74.3138 220.667Z" fill="#8B8B8B"/>
<path fill-rule="evenodd" clip-rule="evenodd" d="M75.3518 223.685C72.3954 225.724 69.186 228.696 67.9056 232.145C67.4967 233.154 67.3419 234.249 67.4548 235.333C67.5263 236.054 67.877 236.718 68.4318 237.183C68.7492 237.401 69.1096 237.548 69.4886 237.615C69.8677 237.683 70.2568 237.668 70.6297 237.573C71.886 237.324 73.1049 236.523 74.0606 235.706L74.652 235.204L76.759 238.919L76.461 239.261C75.8274 240.021 75.0362 240.634 74.1422 241.057C73.2482 241.48 72.2729 241.704 71.2838 241.713C68.7572 241.727 66.3068 240.394 64.7137 238.466C64.2623 237.926 63.8759 237.334 63.5662 236.699C62.6239 234.757 62.5065 232.622 63.2691 230.596C64.2885 227.925 66.6314 225.966 69.0584 224.59L74.7177 221.38L75.8365 223.352L75.3518 223.685Z" fill="#8B8B8B"/>
</g>
<g clip-path="url(#clip4_1_677)">
<path fill-rule="evenodd" clip-rule="evenodd" d="M115.944 276.921L105.99 270.812L108.373 266.93L118.327 273.039L115.944 276.921Z" fill="#122357"/>
<path fill-rule="evenodd" clip-rule="evenodd" d="M93.5235 275.993C105.93 273.211 110.484 265.79 107.348 253.468L107.085 252.445L112.367 252.869L112.501 253.401C113.268 256.295 113.44 259.311 113.009 262.266C112.577 265.222 111.55 268.056 109.989 270.598C108.429 273.141 106.367 275.34 103.927 277.062C101.488 278.785 98.7208 279.997 95.7926 280.624L95.2576 280.745L92.4887 276.228L93.5235 275.993ZM117.237 291.409L111.951 290.991L111.812 290.456C111.046 287.561 110.873 284.546 111.305 281.59C111.736 278.635 112.763 275.801 114.324 273.258C115.884 270.716 117.946 268.517 120.386 266.794C122.825 265.071 125.592 263.86 128.521 263.233L129.061 263.115L131.83 267.632L130.799 267.861C118.392 270.644 113.838 278.065 116.974 290.386L117.233 291.415L117.237 291.409Z" fill="#8B8B8B"/>
</g>
<path fill-rule="evenodd" clip-rule="evenodd" d="M164.491 291.887L168.455 289.632L169.212 290.399L170.501 291.705C171.415 290.64 172.554 289.866 174.028 289.787C175.641 289.696 177.249 290.443 178.681 291.095C179.534 291.514 180.439 291.82 181.371 292.006C181.863 292.104 182.372 292.059 182.839 291.876C183.408 291.634 183.946 291.14 184.402 290.734C185.167 290.031 185.979 289.381 186.833 288.79L188.18 287.885L187.805 289.457C187.32 291.47 186.406 293.669 184.385 294.55C182.218 295.501 179.535 294.583 177.518 293.663C175.107 292.571 173.486 291.906 171.907 294.611L170.971 296.199L167.967 293.156L164.003 295.405L163.24 294.645L160.811 292.179L157.883 295.077L155.899 293.068L160.842 288.186L164.491 291.887Z" fill="#122357"/>
<path fill-rule="evenodd" clip-rule="evenodd" d="M164.536 284.77L168.499 282.515L169.257 283.282L170.546 284.587C171.46 283.522 172.598 282.749 174.073 282.67C175.686 282.579 177.293 283.326 178.725 283.977C179.578 284.399 180.483 284.707 181.415 284.895C181.908 284.991 182.418 284.944 182.884 284.759C183.452 284.517 183.991 284.023 184.447 283.616C185.212 282.914 186.024 282.264 186.878 281.673L188.225 280.768L187.85 282.34C187.365 284.353 186.45 286.551 184.429 287.433C182.263 288.383 179.579 287.466 177.563 286.546C175.151 285.454 173.53 284.789 171.951 287.494L171.015 289.081L168.011 286.039L164.048 288.288L163.284 287.528L160.856 285.062L157.928 287.96L155.943 285.951L160.887 281.069L164.536 284.77Z" fill="#8B8B8B"/>
<g clip-path="url(#clip5_1_677)">
<path fill-rule="evenodd" clip-rule="evenodd" d="M242.512 271.868C242.512 271.868 236.081 280.144 228.272 282.715C228.272 282.715 232.54 269.931 228.168 262.215L226.658 263.701C226.658 263.701 229.913 272.527 222.937 291.289L244.592 277.176L242.512 271.868Z" fill="#8B8B8B"/>
<path fill-rule="evenodd" clip-rule="evenodd" d="M231.58 249.337C231.58 249.337 231.175 260.75 228.252 267.039L226.727 265.471L231.58 249.337Z" fill="#122357"/>
<path d="M221.782 270.849C219.809 270.997 217.957 270.526 216.557 269.639C215.047 268.685 214.048 267.253 213.898 265.572C213.754 263.873 214.498 262.286 215.818 261.089C217.06 259.959 218.839 259.175 220.852 258.998C222.706 258.814 224.571 259.236 226.166 260.2C227.676 261.154 228.676 262.586 228.825 264.268L227.828 264.362L227.896 264.353L228.825 264.268C228.828 264.301 228.833 264.339 228.833 264.372C228.944 266.025 228.206 267.572 226.911 268.748C225.48 269.995 223.676 270.734 221.782 270.849ZM217.632 267.945C218.857 268.674 220.285 268.985 221.702 268.831C223.124 268.736 224.48 268.188 225.561 267.26C226.407 266.492 226.893 265.522 226.833 264.521C226.825 264.472 226.822 264.424 226.822 264.375C226.706 263.377 226.06 262.505 225.097 261.892C224.027 261.217 222.584 260.868 221.023 261C219.465 261.137 218.105 261.727 217.167 262.576C216.303 263.363 215.81 264.359 215.897 265.395C215.987 266.422 216.64 267.319 217.632 267.945Z" fill="#122357"/>
</g>
<g clip-path="url(#clip6_1_677)">
<path fill-rule="evenodd" clip-rule="evenodd" d="M116.911 53.0819C118.796 51.7875 121.108 51.5599 123.283 52.1902C125.549 52.842 127.495 54.363 128.825 56.2996C130.152 58.231 130.873 60.5935 130.671 62.9478C130.603 64.0594 130.286 65.1416 129.745 66.1149C129.204 67.0882 128.451 67.9281 127.543 68.5729C125.659 69.8674 123.347 70.095 121.17 69.4734C118.905 68.7812 116.948 67.3301 115.628 65.3641C114.298 63.4275 113.582 61.0614 113.782 58.7158C113.979 56.4559 115.022 54.3799 116.906 53.0855L116.911 53.0819ZM122.399 55.2423C121.788 55.0412 121.14 54.979 120.502 55.0604C119.864 55.1417 119.252 55.3646 118.711 55.7126C117.62 56.4614 117.057 57.6887 116.948 58.9865C116.811 60.6009 117.342 62.2306 118.255 63.5597C119.164 64.8836 120.495 65.9642 122.05 66.4161C123.301 66.7797 124.649 66.6947 125.739 65.9458C126.829 65.197 127.392 63.9698 127.502 62.6719C127.644 61.0539 127.108 59.4278 126.198 58.1039C125.289 56.78 123.96 55.6907 122.399 55.2423Z" fill="#8B8B8B"/>
<path fill-rule="evenodd" clip-rule="evenodd" d="M126.729 82.061C127.146 80.5213 127.464 78.9044 127.738 77.3335C128.348 73.9495 128.593 70.5098 128.469 67.0734C128.319 64.0286 127.741 60.6735 126.15 58.0225C125.933 57.661 125.868 57.2285 125.97 56.8195C126.071 56.4104 126.331 56.0582 126.691 55.8399C127.053 55.6212 127.486 55.555 127.896 55.6558C128.306 55.7566 128.66 56.0162 128.879 56.3774C130.626 59.2884 131.349 62.8336 131.577 66.1918C131.79 70.0138 131.564 73.8475 130.906 77.6182C130.625 79.3957 130.254 81.1578 129.794 82.8974C129.681 83.3022 129.413 83.646 129.047 83.8539C128.682 84.0619 128.25 84.1171 127.844 84.0076C127.439 83.8946 127.095 83.6263 126.887 83.261C126.679 82.8958 126.619 82.4668 126.729 82.061Z" fill="#8B8B8B"/>
<path fill-rule="evenodd" clip-rule="evenodd" d="M123.16 87.9124C121.275 89.2068 118.967 89.4396 116.792 88.8093C114.526 88.1191 112.567 86.6691 111.244 84.7035C109.918 82.7721 109.198 80.4008 109.404 78.0516C109.596 75.7953 110.637 73.7281 112.526 72.4301C114.416 71.1321 116.724 70.8993 118.899 71.5296C121.169 72.1866 123.121 73.704 124.447 75.6354C125.774 77.5668 126.493 79.9381 126.288 82.2873C126.219 83.3988 125.903 84.481 125.361 85.4543C124.82 86.4277 124.068 87.2675 123.16 87.9124ZM117.667 85.7555C118.918 86.1191 120.265 86.0341 121.356 85.2852C122.451 84.5328 123.014 83.3056 123.124 82.0078C123.264 80.3985 122.729 78.7637 121.82 77.4398C120.911 76.1158 119.577 75.0301 118.024 74.5834C117.412 74.3819 116.763 74.3199 116.124 74.4019C115.485 74.4839 114.872 74.7078 114.331 75.0572C113.24 75.806 112.677 77.0333 112.568 78.3311C112.428 79.9403 112.962 81.5752 113.871 82.8991C114.781 84.2231 116.115 85.3088 117.667 85.7555Z" fill="#122357"/>
<path fill-rule="evenodd" clip-rule="evenodd" d="M113.341 58.942C112.925 60.4729 112.605 62.0986 112.337 63.666C111.727 67.05 111.482 70.4897 111.605 73.9261C111.751 76.9745 112.328 80.3296 113.925 82.977C114.142 83.3394 114.207 83.7732 114.104 84.1832C114.002 84.5932 113.741 84.9457 113.378 85.1631C113.017 85.3799 112.584 85.4446 112.175 85.3432C111.766 85.2418 111.414 84.9825 111.196 84.622C109.449 81.7111 108.725 78.1658 108.492 74.8112C108.234 71.0306 108.553 67.1128 109.166 63.3761C109.454 61.6268 109.808 59.8172 110.281 58.102C110.394 57.6972 110.662 57.3534 111.027 57.1455C111.393 56.9376 111.825 56.8824 112.231 56.9919C112.636 57.1049 112.979 57.3732 113.187 57.7384C113.395 58.1037 113.451 58.5363 113.341 58.942Z" fill="#122357"/>
</g>
<g clip-path="url(#clip7_1_677)">
<path fill-rule="evenodd" clip-rule="evenodd" d="M269.153 211.81C269.421 213.869 269.842 215.97 270.375 218.101C268.855 218.719 267.317 219.294 265.765 219.824C264.803 217.916 263.732 216.066 262.556 214.282L265.848 213.053L269.153 211.81ZM271.565 222.344C273.813 229.635 277.03 237.076 279.6 243.933L275.794 245.364C274.065 240.751 272.378 235.743 270.52 230.836C269.612 228.451 268.665 226.09 267.654 223.811C268.924 223.229 270.234 222.738 271.574 222.341L271.565 222.344Z" fill="#8B8B8B"/>
<path d="M284.408 242.853L280.763 251.34L280.468 252.035L279.785 251.711L271.455 247.708L284.408 242.853Z" fill="#122357"/>
<path fill-rule="evenodd" clip-rule="evenodd" d="M278.859 220.396C272.315 220.738 266.037 223.093 260.882 227.138L258.624 222.167C261.129 222.684 275.745 217.201 277.293 215.165L278.859 220.396Z" fill="#122357"/>
</g>
<path d="M281.399 186.574C278.883 184.476 276.368 181.855 277.342 178.294C277.479 177.747 277.722 177.232 278.058 176.779C278.394 176.326 278.816 175.944 279.3 175.655C280.263 175.085 281.531 174.82 283.12 175.011L283.171 175.013L291.413 176.234L290.889 179.773L282.652 178.552C281.944 178.473 281.45 178.546 281.142 178.73C280.968 178.831 280.853 179.005 280.796 179.22C280.427 180.591 281.749 184.302 282.803 185.184L281.406 186.575L281.399 186.574Z" fill="#122357"/>
<path d="M284.551 181.209L283.341 186.964L283.131 187.952L282.156 187.743L276.401 186.534L284.551 181.209Z" fill="#122357"/>
<path fill-rule="evenodd" clip-rule="evenodd" d="M305.251 172.702L308.758 177.398L306.632 182.718L303.112 182.197L305.251 172.702Z" fill="#122357"/>
<path fill-rule="evenodd" clip-rule="evenodd" d="M305.743 178.359L305.22 181.891L284.042 178.752L284.566 175.219L305.743 178.359Z" fill="#122357"/>
<path fill-rule="evenodd" clip-rule="evenodd" d="M311.237 161.828L307.705 158.987L306.821 164.95L309.411 166.072L311.237 161.828Z" fill="#8B8B8B"/>
<path fill-rule="evenodd" clip-rule="evenodd" d="M308.215 161.686L307.691 165.219L286.514 162.079L287.038 158.547L308.215 161.686Z" fill="#8B8B8B"/>
<path fill-rule="evenodd" clip-rule="evenodd" d="M286.819 162.125L284.733 163.184L282.658 159.7L285.654 156.973L287.343 158.592L286.819 162.125Z" fill="#8B8B8B"/>
<path fill-rule="evenodd" clip-rule="evenodd" d="M306.522 164.129L310.028 168.825L307.903 174.145L304.516 173.026L306.522 164.129Z" fill="#8B8B8B"/>
<path fill-rule="evenodd" clip-rule="evenodd" d="M307.014 169.786L306.491 173.318L285.313 170.179L285.837 166.646L307.014 169.786Z" fill="#8B8B8B"/>
<path fill-rule="evenodd" clip-rule="evenodd" d="M285.619 170.224L283.532 171.284L281.457 167.799L284.453 165.072L286.142 166.692L285.619 170.224Z" fill="#8B8B8B"/>
<path fill-rule="evenodd" clip-rule="evenodd" d="M280.922 117.525L278.186 119.085C277.464 119.494 276.61 119.601 275.809 119.382C275.009 119.163 274.328 118.636 273.916 117.916C273.509 117.195 273.403 116.343 273.622 115.545C273.84 114.747 274.365 114.067 275.083 113.654L277.819 112.095L280.922 117.525Z" fill="#122357"/>
<path fill-rule="evenodd" clip-rule="evenodd" d="M269.624 101.802C274.027 105.889 284.321 123.946 285.595 129.818L293.431 125.351C289.027 121.264 278.733 103.207 277.459 97.3352L269.624 101.802ZM272.931 102.338C277.457 107.951 284.295 119.945 286.818 126.699L290.123 124.815C285.597 119.202 278.759 107.208 276.236 100.454L272.931 102.338Z" fill="#8B8B8B"/>
</g>
</g>
<defs>
<filter id="filter0_d_1_677" x="-0.00268555" y="0.719452" width="346.561" height="346.561" filterUnits="userSpaceOnUse" color-interpolation-filters="sRGB">
<feFlood flood-opacity="0" result="BackgroundImageFix"/>
<feColorMatrix in="SourceAlpha" type="matrix" values="0 0 0 0 0 0 0 0 0 0 0 0 0 0 0 0 0 0 127 0" result="hardAlpha"/>
<feOffset dy="4"/>
<feGaussianBlur stdDeviation="4"/>
<feComposite in2="hardAlpha" operator="out"/>
<feColorMatrix type="matrix" values="0 0 0 0 0 0 0 0 0 0 0 0 0 0 0 0 0 0 0.08 0"/>
<feBlend mode="normal" in2="BackgroundImageFix" result="effect1_dropShadow_1_677"/>
<feBlend mode="normal" in="SourceGraphic" in2="effect1_dropShadow_1_677" result="shape"/>
</filter>
<clipPath id="clip0_1_677">
<rect x="22.9102" y="4.71945" width="316" height="316" rx="158" transform="rotate(2.70493 22.9102 4.71945)" fill="white"/>
</clipPath>
<clipPath id="clip1_1_677">
<rect width="68" height="68" fill="white" transform="translate(125.567 162.74) rotate(-36.6771)"/>
</clipPath>
<clipPath id="clip2_1_677">
<rect width="43" height="43" fill="white" transform="translate(48.7145 115.425) rotate(-55.0413)"/>
</clipPath>
<clipPath id="clip3_1_677">
<rect width="43" height="43" fill="white" transform="translate(65.23 252.308) rotate(-119.563)"/>
</clipPath>
<clipPath id="clip4_1_677">
<rect width="43.93" height="43.6138" fill="white" transform="translate(119.472 302.001) rotate(-148.46)"/>
</clipPath>
<clipPath id="clip5_1_677">
<rect width="43" height="43" fill="white" transform="translate(256.562 278.423) rotate(150.469)"/>
</clipPath>
<clipPath id="clip6_1_677">
<rect width="43" height="43" fill="white" transform="translate(90.1427 64.9493) rotate(-34.4819)"/>
</clipPath>
<clipPath id="clip7_1_677">
<rect width="43" height="43" fill="white" transform="translate(300.932 220.013) rotate(114.454)"/>
</clipPath>
</defs>
</svg>
